<svg width="2271.4375" height="1000" xmlns="http://www.w3.org/2000/svg" xmlns:xlink="http://www.w3.org/1999/xlink">
 <title>trees sky grass</title>
 <defs>
  <linearGradient id="linearGradient4641">
   <stop offset="0" id="stop4643" stop-color="#fcaf3e"/>
   <stop offset="1" id="stop4645" stop-color="#ffce86"/>
  </linearGradient>
  <linearGradient id="linearGradient4368">
   <stop id="stop4370" offset="0" stop-color="#69d007"/>
   <stop id="stop4372" offset="1" stop-opacity="0" stop-color="#4e9a06"/>
  </linearGradient>
  <linearGradient id="linearGradient4336">
   <stop offset="0" id="stop4338" stop-color="#458905"/>
   <stop offset="1" id="stop4340" stop-opacity="0" stop-color="#4e9a06"/>
  </linearGradient>
  <linearGradient id="linearGradient4328">
   <stop offset="0" id="stop4330" stop-color="#8f5902"/>
   <stop offset="1" id="stop4332" stop-color="#724701"/>
  </linearGradient>
  <linearGradient id="linearGradient4238">
   <stop offset="0" id="stop4240" stop-color="#55a800"/>
   <stop offset="1" id="stop4242" stop-color="#74e400"/>
  </linearGradient>
  <linearGradient id="linearGradient4191">
   <stop offset="0" id="stop4193" stop-color="#007900"/>
   <stop offset="1" id="stop4195" stop-opacity="0" stop-color="#008400"/>
  </linearGradient>
  <linearGradient id="linearGradient4180">
   <stop offset="0" id="stop4182" stop-color="#00a400"/>
   <stop offset="1" id="stop4184" stop-opacity="0" stop-color="#00a400"/>
  </linearGradient>
  <linearGradient id="linearGradient4103">
   <stop offset="0" id="stop4105" stop-color="#00acf4"/>
   <stop offset="1" id="stop4107" stop-color="#a6e5ff"/>
  </linearGradient>
  <linearGradient xlink:href="#linearGradient4103" id="linearGradient4109" x1="0.47421" y1="-0.18942" x2="0.47421" y2="1.0001"/>
  <linearGradient xlink:href="#linearGradient4191" id="linearGradient4200" x1="0.49208" y1="-0.4884" x2="0.49085" y2="0.52421"/>
  <clipPath clipPathUnits="userSpaceOnUse" id="clipPath4234">
   <path d="m-778.794556,92.707787c-11.65564,0 -21.0625,5.752144 -21.0625,12.875l0,830.031227c73.681519,-9.907227 153.852417,-15.0625 237.156128,-15.0625c343.817139,0 484.305725,44.117554 822.843811,235.71875c342.857117,194.045776 775.268127,461.424072 -891.406311,464.28125c-60.104736,0.103271 -116.483887,-9.398071 -168.593628,-25.937378l0,150.96875c0,7.122803 9.40686,12.843994 21.0625,12.843628l2229.34375,0c11.655518,0 21.03125,-5.720825 21.03125,-12.843628l0,-640.000122l0,-67.40625l0,-932.593735c0,-7.122856 -9.375732,-12.875 -21.03125,-12.875l-2229.34375,0l0,0.000008z" id="path4236" stroke-dashoffset="0" stroke-miterlimit="4" stroke-linejoin="round" stroke-linecap="round" stroke-width="3" fill="#9cf000"/>
  </clipPath>
  <clipPath clipPathUnits="userSpaceOnUse" id="clipPath4253">
   <path d="m195.491058,69.850647c-11.655579,0 -21.0625,5.752144 -21.0625,12.874992l0,830.031197l0,169.96875l0,640c0,7.122925 9.406952,12.843994 21.0625,12.84375l2229.343903,0c11.655273,0 21.03125,-5.720947 21.03125,-12.84375l0,-640l0,-67.40625l0,-932.593697c0,-7.122856 -9.375977,-12.874992 -21.03125,-12.874992l-2229.343903,0z" id="path4255" stroke-dashoffset="0" stroke-miterlimit="4" stroke-linejoin="round" stroke-linecap="round" stroke-width="3" fill="url(#linearGradient4257)"/>
  </clipPath>
  <linearGradient xlink:href="#linearGradient4103" id="linearGradient4257" x1="0.47422" y1="-0.11664" x2="0.47422" y2="0.61584"/>
  <linearGradient xlink:href="#linearGradient4180" id="linearGradient4261" x1="0.35729" y1="-0.1206" x2="0.35729" y2="0.58163"/>
  <linearGradient xlink:href="#linearGradient4238" id="linearGradient4263" x1="0.5" y1="-0.07013" x2="0.51067" y2="1.4259"/>
  <linearGradient xlink:href="#linearGradient4336" id="linearGradient4382" x1="0.76245" y1="0.90478" x2="0.65567" y2="0.53421"/>
  <linearGradient xlink:href="#linearGradient4368" id="linearGradient4384" x1="0.43915" y1="0" x2="0.5521" y2="0.5"/>
  <linearGradient xlink:href="#linearGradient4368" id="linearGradient4386" x1="0.10972" y1="0.00017" x2="0.68302" y2="0.81569"/>
  <linearGradient xlink:href="#linearGradient4336" id="linearGradient4388" x1="0.03788" y1="0.75149" x2="0.65907" y2="0.18054"/>
  <linearGradient xlink:href="#linearGradient4328" id="linearGradient4390" x1="0.5" y1="0.5" x2="1" y2="0.5"/>
  <radialGradient xlink:href="#linearGradient4641" id="radialGradient4647" cx="-640" cy="-27.63782" fx="-640" fy="-27.63782" r="284.19949" gradientTransform="matrix(1.3896636,0.7071731,-0.555426,1.0914658,234.03392,455.11869)" gradientUnits="userSpaceOnUse"/>
  <filter x="-0.13033" width="1.26066" y="-0.29791" height="1.59582" id="filter5183">
   <feGaussianBlur stdDeviation="24.8259" id="feGaussianBlur5185"/>
  </filter>
  <clipPath clipPathUnits="userSpaceOnUse" id="clipPath5381">
   <path d="m618.213013,-43.600201c-48.512512,0 -90.277039,11.929932 -108.884583,29.029c-4.26886,-0.294829 -8.609497,-0.457609 -13.019836,-0.45758c-57.891602,0 -104.884521,26.51587 -104.884521,59.185259c0,28.591515 35.995605,52.464554 83.786011,57.979874c14.848328,30.919449 81.280579,54.263428 160.924805,54.263428c90.548401,0 164.042603,-30.168213 164.042603,-67.34375l-0.117676,-1.082581c29.333679,-9.232063 48.520508,-24.50153 48.520508,-41.774578l-0.421509,-4.386143c-5.100586,-26.509359 -53.967407,-46.620639 -113.325806,-46.640639c-11.480103,-22.433401 -59.405518,-38.772329 -116.619995,-38.772298l0,0.000008z" id="path5383" stroke-dashoffset="0" stroke-miterlimit="4" stroke-linejoin="round" stroke-linecap="round" stroke-width="5" fill="#fdfdfd" opacity="0.89333"/>
  </clipPath>
  <clipPath clipPathUnits="userSpaceOnUse" id="clipPath5495">
   <path id="path5497" d="m1652.498657,-135.028763c-48.512451,0 -90.276978,11.929924 -108.884521,29.028992c-4.268921,-0.294823 -8.609497,-0.457611 -13.019897,-0.457565c-57.891602,0 -104.884399,26.515846 -104.884399,59.185246c0,28.591501 35.995483,52.464561 83.786011,57.979881c14.848267,30.919441 81.280518,54.263401 160.924805,54.263432c90.54834,0 164.042603,-30.168243 164.042603,-67.343782l-0.117798,-1.08256c29.33374,-9.23204 48.520752,-24.501539 48.520752,-41.77459l-0.421875,-4.386131c-5.100586,-26.509357 -53.967285,-46.62064 -113.325684,-46.640629c-11.480103,-22.433411 -59.405396,-38.772339 -116.619995,-38.772293z" stroke-dashoffset="0" stroke-miterlimit="4" stroke-linejoin="round" stroke-linecap="round" stroke-width="5" fill="#fdfdfd" opacity="0.89333"/>
  </clipPath>
  <clipPath clipPathUnits="userSpaceOnUse" id="clipPath5671">
   <rect id="rect5673" width="3815.5286" height="1722.9872" x="-239.71918" y="-242.65996" rx="35.34109" ry="21.59733" stroke-dashoffset="0" stroke-miterlimit="4" stroke-linejoin="round" stroke-linecap="round" stroke-width="3" fill="url(#linearGradient5675)"/>
  </clipPath>
  <linearGradient xlink:href="#linearGradient4103" id="linearGradient5675" x1="0.47421" y1="-0.18942" x2="0.47421" y2="1.0001"/>
  <clipPath clipPathUnits="userSpaceOnUse" id="clipPath5677">
   <rect ry="20.37498" rx="33.34088" y="-230.42346" x="-231.16412" height="1625.4709" width="3599.5803" id="rect5679" stroke-dashoffset="0" stroke-miterlimit="4" stroke-linejoin="round" stroke-linecap="round" stroke-width="3" fill="url(#linearGradient5681)"/>
  </clipPath>
  <linearGradient xlink:href="#linearGradient4103" id="linearGradient5681" x1="0.47421" y1="-0.18942" x2="0.47421" y2="1.0001"/>
  <linearGradient y2="0.52421" x2="0.49085" y1="-0.4884" x1="0.49208" id="svg_1" xlink:href="#linearGradient4191"/>
  <linearGradient y2="0.58163" x2="0.35729" y1="-0.1206" x1="0.35729" id="svg_2" xlink:href="#linearGradient4180"/>
 </defs>
 <metadata id="metadata7">image/svg+xmlSummer LandscapeCarlos AsmatsummergreenlandscapetreecloudsA simple summer landscape featuring green grass, a blue sky and white clouds.</metadata>
 <g>
  <title>Layer 1</title>
  <path d="m1213.827026,146.123901c-215.169922,0 -379.223938,34.23999 -506.189941,86.406006c-139.692993,-48.925964 -270.223999,-63.531006 -468.093979,-63.531006c-83.303009,0 -163.475403,5.155029 -237.156009,15.062012l0,809.972046c0,7.119995 9.406898,12.839966 21.062499,12.839966l2229.347523,0c11.650146,0 21.030029,-5.719971 21.030029,-12.839966l0,-707.409058c-167.75,0.92804 -334.180054,3.174011 -499.130005,6.718018c-168.050049,-63.882996 -304.030029,-147.218018 -560.870117,-147.218018z" id="path4202" stroke-dashoffset="0" stroke-miterlimit="4" stroke-linejoin="round" stroke-linecap="round" stroke-width="3" fill="url(#linearGradient4263)"/>
  <path d="m1958.397095,351.56189c273.650024,51.380981 3923.450073,427.811035 -745.719971,375.71106c-4661.069946,-52.099976 -787.932037,-313.380005 -699.995056,-381.426025c140,-108.330994 353.325012,-195.713989 697.144958,-195.713989c343.810059,0 471.070068,149.328979 748.570068,201.428955z" id="path4113" stroke-dashoffset="0" stroke-miterlimit="4" stroke-linejoin="round" stroke-linecap="round" stroke-width="3" fill="url(#linearGradient4200)"/>
  <path d="m1058.397095,408.702881c342.859985,194.050049 775.23999,461.430054 -891.429993,464.290039c-343.815994,0.589966 -565.515015,-312.670044 -565.71402,-464.290039c-0.190002,-148.013977 290.469017,-235.712952 634.286011,-235.712952c343.816986,0 484.319,44.112976 822.858002,235.712952z" id="path4111" stroke-dashoffset="0" stroke-miterlimit="4" stroke-linejoin="round" stroke-linecap="round" stroke-width="3" fill="url(#linearGradient4261)"/>
  <path d="m893.691101,426.99292c64.11499,0 119.315979,11.930054 143.905945,29.030029c5.640015,-0.300049 11.380005,-0.460083 17.210083,-0.460083c76.51001,0 138.609985,26.51001 138.609985,59.180054c0,28.589966 -47.570068,52.469971 -110.72998,57.97998c-19.619995,30.920044 -107.422058,54.27002 -212.682068,54.27002c-119.671997,0 -216.803955,-30.170044 -216.803955,-67.349976l0.155945,-1.080078c-38.767944,-9.22998 -64.125977,-24.5 -64.125977,-41.769897l0.557007,-4.390015c6.741028,-26.51001 71.325012,-46.619995 149.773987,-46.640015c15.173035,-22.430054 78.512024,-38.77002 154.129028,-38.77002z" id="path5189" filter="url(#filter5183)" stroke-dashoffset="0" stroke-miterlimit="4" stroke-linejoin="round" stroke-linecap="round" stroke-width="5" fill="#000000" opacity="0.03111"/>
  <path id="path7786" d="m294.827087,694.7229c-4.040009,1.390015 -5.049988,4.570068 -8.442017,9.329956c-4.414978,8.180054 -13.355988,32.660034 -12.349976,36.670044c1.333984,7.209961 12.565979,-33.660034 20.791992,-46zm-75.844986,17.829956c9.589005,29.460083 10.490997,31.670044 17.968994,31.240112c-1.587997,-5.440063 -6.146988,-9.869995 -9.345993,-15.030029c-3.410995,-5.51001 -5.264008,-15.810059 -8.623001,-16.210083zm33.703003,1.070068c-10.913025,19.25 -12.078003,26.179932 -10.240021,28.349976c3.361023,2.089966 2.627014,-3.369995 10.240021,-28.349976zm20.41597,4.130005c-2.685974,-0.73999 -4.642975,5.929932 -5.710999,11.380005c-2.72699,13.929932 -2.757996,11.919922 -0.919983,13.099976c2.533997,1.619995 2.518005,-12.589966 6.630981,-24.47998zm18.071014,-1.280029c-2.812012,0.130005 -4.274017,5.780029 -6.246002,10.97998c-1.980988,9.930054 -7.744995,16.099976 -3.679993,16.47998c4.041992,0.369995 6.838989,-15.679932 9.925995,-27.459961zm-30.139008,3.820068c-8.867996,15.959961 -10.763992,20.859985 -7.201981,21.519897c2.295975,0.420044 2.476974,-3.47998 5.098984,-10.039917c1.688995,-4.220093 3.794006,-7.920044 2.102997,-11.47998z" stroke-dashoffset="0" stroke-miterlimit="4" stroke-linejoin="round" stroke-linecap="round" stroke-width="3" fill="#1e9e00" opacity="0.698"/>
  <g id="g7640">
   <path d="m409.412079,902.182861c0.007996,8.740112 -12.966003,15.840088 -28.971985,15.840088c-16.006012,0 -28.980011,-7.099976 -28.972015,-15.840088c-0.007996,-8.75 12.966003,-15.849976 28.972015,-15.849976c16.005981,0 28.97998,7.099976 28.971985,15.849976z" id="path4271" stroke-dashoffset="0" stroke-miterlimit="4" stroke-linejoin="round" stroke-linecap="round" stroke-width="3" fill="#ad7fa8"/>
   <path id="path5606" d="m294.442078,747.162964c-1.660004,1.130005 -5.755981,0.099976 -8.079987,0.469971c-2.402008,0.380005 -4.994019,3.5 -7.427002,3.049927c-2.356018,-0.439941 -3.862,-3.919922 -5.582001,-5.009888c-1.778015,-1.130005 -5.386017,-0.910034 -6.160004,-2.420044c-0.748993,-1.469971 2.450012,-3.839966 3.092987,-5.320068c0.665009,-1.539917 -1.044983,-4.119995 0.745026,-5.209961c1.733002,-1.059937 5.556976,0.410034 7.85199,0c2.371002,-0.420044 4.901001,-2.959961 7.352997,-2.579956c2.372986,0.359985 3.938995,2.969971 5.679016,4.02002c1.796997,1.079956 6.638977,1.399902 7.461975,2.869995c0.796021,1.429932 -4.075989,3.099976 -4.566986,4.599976c-0.507019,1.549927 1.346985,4.369995 -0.368011,5.530029z" stroke-dashoffset="0" stroke-miterlimit="4" stroke-linejoin="round" stroke-linecap="round" stroke-width="3" fill="#ce5c00"/>
   <path id="path5604" d="m247.300095,782.712891c-2.082001,1.140015 -6.056992,1.349976 -9.013,1.75c-2.955994,0.400024 -7.283997,2.330078 -10.194,1.859985c-2.910995,-0.469971 -5.561996,-2.789917 -7.681,-3.890015c-2.119995,-1.109985 -5.965988,-2.22998 -6.862991,-3.73999c-0.897003,-1.519897 1.985992,-3.839966 2.690002,-5.339966c0.703995,-1.48999 -0.10701,-4.410034 2.063995,-5.47998c2.169998,-1.079956 7.520996,-0.420044 10.343002,-0.900024c2.821991,-0.47998 5.556,-2.150024 8.48999,-1.76001c2.934006,0.390015 5.571014,2.73999 7.681,3.900024c2.109009,1.150024 7.639008,1.719971 8.595001,3.189941c0.957001,1.470093 -2.019989,3.900024 -2.809998,5.370117c-0.790009,1.47998 -1.220001,3.889893 -3.302002,5.039917z" stroke-dashoffset="0" stroke-miterlimit="4" stroke-linejoin="round" stroke-linecap="round" stroke-width="3" fill="#f57900"/>
   <path d="m328.466095,754.682861c-1.653015,0.890015 -6.394012,-0.439941 -8.677002,0.030029c-2.282013,0.47998 -6.971008,3.030029 -9.472015,2.73999c-2.501007,-0.299927 -3.763,-2.640015 -5.865997,-3.380005c-2.10199,-0.73999 -5.832001,-0.640015 -6.80899,-1.75c-0.977997,-1.099976 1.290009,-3.679932 1.877991,-4.829956c0.587006,-1.150024 -1.118988,-3.25 0.515015,-4.199951c1.634003,-0.950073 6.595001,-0.76001 9.027985,-1.080078c2.433014,-0.309937 5.166992,-1.829956 7.71402,-1.630005c2.54599,0.190063 5.033997,2.099976 7.149994,2.790039c2.11499,0.689941 6.158997,1.459961 7.283997,2.559937c1.123993,1.090088 -1.687012,2.350098 -1.966003,3.540039c-0.278992,1.190063 0.875,4.320068 -0.778992,5.209961z" id="path5600" stroke-dashoffset="0" stroke-miterlimit="4" stroke-linejoin="round" stroke-linecap="round" stroke-width="3" fill="#fcc916"/>
   <path d="m281.476074,767.00293c-1.855988,1.299927 -7.108978,-0.040039 -9.737976,0.619995c-2.628021,0.650024 -7.197998,3.809937 -10.037018,3.439941c-2.838989,-0.369995 -4.467987,-3.539917 -6.789993,-4.619995c-2.320984,-1.079956 -6.845001,-1.219971 -7.915985,-2.819946c-1.071014,-1.599976 1.701996,-4.829956 2.294983,-6.51001c0.59201,-1.670044 -1.225006,-4.650024 0.617004,-6.01001c1.843018,-1.359985 7.248001,-1.040039 9.983994,-1.550049c2.735992,-0.509888 5.937988,-2.73999 8.806,-2.459961c2.868011,0.290039 5.356995,3.060059 7.688995,4.099976c2.332001,1.040039 7.074005,1.950073 8.248016,3.550049c1.173981,1.589966 -1.980011,3.630005 -2.356018,5.349976c-0.375977,1.709961 1.055023,5.609985 -0.802002,6.910034z" id="path5598" stroke-dashoffset="0" stroke-miterlimit="4" stroke-linejoin="round" stroke-linecap="round" stroke-width="3" fill="#ad7fa8"/>
   <path d="m275.581085,801.74292c-2.649994,1.650024 -9.188995,0.140015 -12.899994,0.680054c-3.834015,0.569946 -7.972,5.159912 -11.85701,4.48999c-3.759979,-0.650024 -6.164001,-5.76001 -8.91098,-7.369995c-2.837006,-1.660034 -8.598007,-1.330078 -9.834,-3.560059c-1.195999,-2.150024 3.912994,-5.650024 4.938995,-7.829956c1.061005,-2.26001 -1.668991,-6.050049 1.189011,-7.660034c2.765991,-1.560059 8.870972,0.609985 12.534973,0c3.785034,-0.619995 7.82399,-4.359985 11.737991,-3.800049c3.789001,0.530029 6.289001,4.369995 9.06601,5.910034c2.869019,1.599976 10.598999,2.070068 11.912018,4.23999c1.271973,2.099976 -6.506012,4.560059 -7.290009,6.76001c-0.809021,2.280029 2.149994,6.420044 -0.587006,8.140015z" id="path5594" stroke-dashoffset="0" stroke-miterlimit="4" stroke-linejoin="round" stroke-linecap="round" stroke-width="3" fill="#ce5c00"/>
   <path id="path5592" d="m306.373077,790.612915c-2.191986,1.310059 -8.393005,-0.040039 -11.496979,0.619995c-3.103027,0.660034 -8.498016,3.810059 -11.850006,3.440063c-3.351013,-0.370117 -5.274994,-3.540039 -8.016022,-4.620117c-2.740997,-1.079956 -8.080994,-1.219971 -9.345978,-2.819946c-1.265015,-1.599976 2.009003,-4.829956 2.708984,-6.51001c0.700012,-1.670044 -1.445984,-4.650024 0.729004,-6.01001c2.175995,-1.359985 8.557007,-1.030029 11.787018,-1.549927c3.22998,-0.51001 7.010986,-2.73999 10.396973,-2.450073c3.386017,0.280029 6.324005,3.050049 9.078003,4.089966c2.752014,1.040039 8.35202,1.960083 9.738007,3.550049c1.386017,1.589966 -2.337982,3.640015 -2.781982,5.349976c-0.444,1.710083 1.244995,5.609985 -0.947021,6.910034z" stroke-dashoffset="0" stroke-miterlimit="4" stroke-linejoin="round" stroke-linecap="round" stroke-width="3" fill="#3465a4"/>
   <path id="path5590" d="m328.770081,835.602905c-2.623993,1.449951 -10.148987,-0.709961 -13.770996,0.060059c-3.622986,0.769897 -11.063995,4.899902 -15.033997,4.419922c-3.970001,-0.47998 -5.972015,-4.27002 -9.30899,-5.459961c-3.337006,-1.199951 -9.256012,-1.030029 -10.808014,-2.820068c-1.552002,-1.779907 2.048004,-5.949951 2.980988,-7.809937c0.933014,-1.859985 -1.776001,-5.25 0.818024,-6.790039c2.592987,-1.539917 10.466003,-1.22998 14.326996,-1.73999c3.862,-0.51001 8.201996,-2.959961 12.243988,-2.640015c4.041016,0.310059 7.989014,3.390015 11.347015,4.51001c3.356995,1.119995 9.776001,2.369995 11.559998,4.140015c1.783997,1.76001 -2.675995,3.790039 -3.119995,5.719971c-0.443024,1.920044 1.388977,6.970093 -1.235016,8.410034z" stroke-dashoffset="0" stroke-miterlimit="4" stroke-linejoin="round" stroke-linecap="round" stroke-width="3" fill="#fcaf3e"/>
   <path id="path5586" d="m375.485077,858.182861c-3.144989,2.040039 -10.904999,0.170044 -15.30899,0.850098c-4.549988,0.689941 -9.460999,6.339966 -14.071014,5.51001c-4.462982,-0.800049 -7.316986,-7.090088 -10.575989,-9.060059c-3.367004,-2.040039 -10.204987,-1.630005 -11.67099,-4.369995c-1.420013,-2.650024 4.643005,-6.939941 5.860992,-9.630005c1.259003,-2.77002 -1.980988,-7.430054 1.411011,-9.410034c3.28299,-1.909912 10.528992,0.75 14.876984,0.01001c4.492004,-0.77002 9.285004,-5.359985 13.931,-4.679932c4.497009,0.659912 7.463013,5.369995 10.759003,7.27002c3.404999,1.959961 12.578003,2.529907 14.136993,5.199951c1.509003,2.579956 -7.721985,5.609985 -8.651978,8.319946c-0.960022,2.800049 2.551971,7.890015 -0.697021,9.98999z" stroke-dashoffset="0" stroke-miterlimit="4" stroke-linejoin="round" stroke-linecap="round" stroke-width="3" fill="#cc0000"/>
   <path d="m330.737091,893.832886c-3.059021,1.700073 -11.830994,-0.829956 -16.054016,0.070068c-4.223999,0.909912 -12.89798,5.77002 -17.526978,5.209961c-4.628021,-0.569946 -6.963013,-5.030029 -10.853027,-6.439941c-3.889984,-1.400024 -10.789978,-1.210083 -12.598999,-3.310059c-1.809998,-2.099976 2.387024,-7.02002 3.475006,-9.209961c1.087006,-2.190063 -2.070984,-6.190063 0.953003,-8c3.02301,-1.810059 12.201996,-1.440063 16.703003,-2.040039c4.502014,-0.609985 9.562012,-3.48999 14.273987,-3.119995c4.711029,0.380005 9.315002,4 13.228027,5.319946c3.914001,1.320068 11.39798,2.790039 13.477997,4.869995c2.079987,2.080078 -3.119995,4.470093 -3.637024,6.740112c-0.516998,2.269897 1.618011,8.219971 -1.440979,9.909912l0,0l0,0z" id="path5582" stroke-dashoffset="0" stroke-miterlimit="4" stroke-linejoin="round" stroke-linecap="round" stroke-width="3" fill="#fcaf3e"/>
   <path d="m407.856079,911.192871c-2.895996,1.830078 -11.092987,-0.049927 -15.195007,0.869995c-4.100983,0.920044 -11.231995,5.360107 -15.661987,4.830078c-4.428986,-0.52002 -6.971985,-4.969971 -10.595001,-6.48999c-3.622009,-1.51001 -10.679993,-1.710083 -12.35199,-3.960083c-1.671997,-2.25 2.656006,-6.789917 3.580994,-9.140015c0.924011,-2.349976 -1.911987,-6.539917 0.963013,-8.449951c2.875977,-1.900024 11.309998,-1.449951 15.577972,-2.170044c4.269012,-0.719971 9.266998,-3.849976 13.742004,-3.449951c4.475006,0.390015 8.359009,4.290039 11.997009,5.75c3.639008,1.459961 11.039001,2.75 12.871002,4.98999c1.832001,2.22998 -3.089996,5.109985 -3.675995,7.51001c-0.587006,2.410034 1.644989,7.880005 -1.252014,9.709961z" id="path5576" stroke-dashoffset="0" stroke-miterlimit="4" stroke-linejoin="round" stroke-linecap="round" stroke-width="3" fill="#ad7fa8"/>
   <path id="path5574" d="m371.175079,916.75293c-3.54599,2.01001 -10.316986,2.369995 -15.350983,3.079956c-5.035004,0.700073 -12.406006,4.080078 -17.362,3.25c-4.957001,-0.819946 -9.472015,-4.880005 -13.082001,-6.819946c-3.610016,-1.930054 -10.161011,-3.900024 -11.689026,-6.550049c-1.527985,-2.650024 3.384003,-6.72998 4.583008,-9.339966c1.197998,-2.619995 -0.182983,-7.72998 3.514008,-9.619995c3.696991,-1.880005 12.809998,-0.719971 17.615997,-1.560059c4.806,-0.849976 9.462006,-3.769897 14.459991,-3.089966c4.997009,0.690063 9.488007,4.800049 13.081024,6.820068c3.593994,2.019897 13.009979,3.019897 14.638977,5.599976c1.630005,2.579956 -3.440979,6.839966 -4.78598,9.419922c-1.345001,2.570068 -2.078003,6.800049 -5.623016,8.810059z" stroke-dashoffset="0" stroke-miterlimit="4" stroke-linejoin="round" stroke-linecap="round" stroke-width="3" fill="#f57900"/>
   <path id="path5578" d="m353.190094,806.552856c-2.589996,1.400024 -10.018005,-0.689941 -13.595001,0.060059c-3.576996,0.73999 -10.921997,4.77002 -14.84201,4.300049c-3.919006,-0.460083 -5.895996,-4.160034 -9.190002,-5.320068c-3.294983,-1.169922 -9.138,-1.01001 -10.669983,-2.75c-1.532013,-1.72998 2.022003,-5.799927 2.942993,-7.609985c0.92099,-1.809937 -1.752991,-5.119995 0.807007,-6.619995c2.559998,-1.5 10.332977,-1.189941 14.144989,-1.689941c3.812012,-0.5 8.096985,-2.890015 12.087006,-2.580078c3.98999,0.310059 7.888,3.310059 11.201996,4.400024c3.313995,1.089966 9.652008,2.309937 11.412994,4.030029c1.761017,1.719971 -2.641998,3.699951 -3.079987,5.579956c-0.438019,1.869995 1.371002,6.790039 -1.220001,8.199951z" stroke-dashoffset="0" stroke-miterlimit="4" stroke-linejoin="round" stroke-linecap="round" stroke-width="3" fill="#fcc916"/>
   <path d="m223.380096,742.872925c-2.119003,1.170044 -7.348999,0.099976 -10.317001,0.48999c-3.067001,0.390015 -6.376999,3.619995 -9.483994,3.150024c-3.007996,-0.460083 -4.931,-4.050049 -7.128006,-5.180054c-2.268997,-1.169922 -6.876999,-0.929932 -7.86499,-2.5c-0.957001,-1.51001 3.128998,-3.969971 3.949997,-5.5c0.847992,-1.589966 -1.335007,-4.25 0.949997,-5.380005c2.212997,-1.099976 7.097,0.420044 10.027008,0c3.026993,-0.439941 6.257996,-3.059937 9.388992,-2.669922c3.031006,0.369995 5.029999,3.069946 7.251007,4.149902c2.29599,1.119995 8.477997,1.450073 9.528,2.980103c1.016998,1.469971 -5.20401,3.199951 -5.831009,4.75c-0.647003,1.599976 1.720001,4.51001 -0.470001,5.709961l0,0l0,0z" id="path5580" stroke-dashoffset="0" stroke-miterlimit="4" stroke-linejoin="round" stroke-linecap="round" stroke-width="3" fill="#ce5c00"/>
   <path id="path5584" d="m410.130096,874.99292c-3.322021,1.77002 -11.518005,0.150024 -16.170013,0.73999c-4.804993,0.599976 -9.992004,5.51001 -14.862,4.800049c-4.713989,-0.700073 -7.727997,-6.170044 -11.170013,-7.890015c-3.556976,-1.77002 -10.777985,-1.410034 -12.326996,-3.790039c-1.498993,-2.309937 4.904022,-6.040039 6.19101,-8.380005c1.32901,-2.400024 -2.092987,-6.459961 1.489014,-8.179932c3.467987,-1.660034 11.121002,0.649902 15.713989,0c4.743988,-0.660034 9.807007,-4.660034 14.713989,-4.070068c4.75,0.579956 7.882019,4.680054 11.364014,6.329956c3.596985,1.700073 13.285004,2.200073 14.932007,4.52002c1.593994,2.25 -8.156006,4.880005 -9.138,7.22998c-1.015015,2.440063 2.694977,6.870117 -0.737,8.690063z" stroke-dashoffset="0" stroke-miterlimit="4" stroke-linejoin="round" stroke-linecap="round" stroke-width="3" fill="#ce5c00"/>
   <path d="m311.890076,862.042969c-2.543976,1.689941 -8.820984,0.139893 -12.382996,0.699951c-3.679993,0.579956 -7.652985,5.280029 -11.381989,4.589966c-3.610016,-0.659912 -5.917999,-5.900024 -8.554993,-7.539917c-2.723022,-1.700073 -8.254028,-1.360107 -9.440002,-3.640015c-1.14801,-2.200073 3.755981,-5.780029 4.740997,-8.01001c1.018005,-2.310059 -1.60202,-6.190063 1.140991,-7.830078c2.656006,-1.599976 8.516998,0.619995 12.033997,0c3.632996,-0.639893 7.51001,-4.459961 11.268005,-3.889893c3.638,0.539917 6.036987,4.469971 8.703003,6.049927c2.755005,1.630005 10.173981,2.109985 11.434998,4.329956c1.221008,2.150024 -6.246002,4.660034 -6.998016,6.920044c-0.776978,2.329956 2.064026,6.570068 -0.563995,8.320068z" id="path5588" stroke-dashoffset="0" stroke-miterlimit="4" stroke-linejoin="round" stroke-linecap="round" stroke-width="3" fill="#f57900"/>
   <path id="path5596" d="m255.646103,829.022949c-2.393005,1.679932 -9.164001,-0.050049 -12.553009,0.789917c-3.388992,0.850098 -9.279999,4.920044 -12.938995,4.440063c-3.660004,-0.47998 -5.761002,-4.570068 -8.752991,-5.959961c-2.993011,-1.390015 -8.824005,-1.570068 -10.205002,-3.630005c-1.382004,-2.060059 2.194,-6.230103 2.957993,-8.390015c0.764008,-2.160034 -1.580002,-6 0.796005,-7.75c2.375,-1.75 9.343002,-1.340088 12.869995,-2c3.527008,-0.660034 7.656006,-3.530029 11.352997,-3.160034c3.697006,0.359985 6.904984,3.939941 9.910995,5.27002c3.006012,1.339966 9.11998,2.530029 10.63298,4.579956c1.514008,2.050049 -2.551971,4.690063 -3.036987,6.900024c-0.484009,2.209961 1.360016,7.22998 -1.033981,8.910034z" stroke-dashoffset="0" stroke-miterlimit="4" stroke-linejoin="round" stroke-linecap="round" stroke-width="3" fill="#ad7fa8"/>
   <path d="m267.304077,742.422974c-2.080994,1.149902 -6.057007,1.359985 -9.013,1.759888c-2.955978,0.400024 -7.283981,2.330078 -10.193985,1.860107c-2.910004,-0.470093 -5.562012,-2.790039 -7.680984,-3.900024c-2.119003,-1.099976 -5.966003,-2.219971 -6.863007,-3.72998c-0.897003,-1.52002 1.987,-3.850098 2.690994,-5.340088c0.703003,-1.48999 -0.108002,-4.409912 2.063004,-5.47998c2.171005,-1.079956 7.521988,-0.419922 10.343002,-0.900024c2.821991,-0.47998 5.556,-2.149902 8.489975,-1.76001c2.934998,0.390015 5.572021,2.740112 7.681,3.890015c2.110016,1.160034 7.639008,1.720093 8.596008,3.200073c0.955994,1.469971 -2.020996,3.900024 -2.811005,5.369995c-0.790009,1.469971 -1.220001,3.890015 -3.302002,5.030029z" id="path5602" stroke-dashoffset="0" stroke-miterlimit="4" stroke-linejoin="round" stroke-linecap="round" stroke-width="3" fill="#f57900"/>
   <path d="m349.572083,778.142944c-1.914001,1.289917 -7.402008,-0.630005 -10.044006,0.049927c-2.643005,0.690063 -8.069977,4.369995 -10.966003,3.940063c-2.895996,-0.420044 -4.355988,-3.800049 -6.789978,-4.869995c-2.434021,-1.060059 -6.752014,-0.920044 -7.884003,-2.51001c-1.132019,-1.589966 1.493988,-5.320068 2.174988,-6.969971c0.679993,-1.660034 -1.29599,-4.690063 0.596008,-6.060059c1.891998,-1.369995 7.63501,-1.089966 10.450989,-1.549927c2.81601,-0.460083 5.981995,-2.640015 8.930023,-2.360107c2.947998,0.280029 5.827972,3.030029 8.276978,4.030029c2.449005,1 7.131012,2.109985 8.432007,3.690063c1.302002,1.569946 -1.951996,3.390015 -2.274994,5.099976c-0.324005,1.719971 1.011993,6.219971 -0.902008,7.51001z" id="path7636" stroke-dashoffset="0" stroke-miterlimit="4" stroke-linejoin="round" stroke-linecap="round" stroke-width="3" fill="#fcaf3e"/>
  </g>
  <g id="g5828" display="inline" fill="#009800" opacity="0.69778">
   <path d="m-4012.080078,2149.97998c-12.959961,-57.300049 -65.419922,-104.150024 -110.759766,-139.780029c58.289795,5.970093 98.619873,69.929932 124.039795,117.939941c2.570068,8.970215 -2.439941,22.190186 -13.280029,21.840088z" id="path5830" stroke-dashoffset="0" stroke-miterlimit="4" stroke-linejoin="round" stroke-linecap="round" stroke-width="5" fill="#009800"/>
   <path d="m-3937.5,2141.300049c16.919922,-30.070068 -35.47998,-114.77002 -26.26001,-150.660034c29.290039,54.48999 47.23999,92.359985 42.02002,140.920044c-3.419922,5.669922 -10.5,6.560059 -15.76001,9.73999z" id="path5832" stroke-dashoffset="0" stroke-miterlimit="4" stroke-linejoin="round" stroke-linecap="round" stroke-width="5" fill="#009800"/>
   <path d="m-3862.98999,2138.939941c25.25,-47.25 55.26001,-94.919922 108.540039,-113.319946c-29.530029,20.459961 -63.100098,41.019897 -76.160156,76.460083c-6.839844,14.829834 -14.689941,32.879883 -32.379883,36.859863z" id="path5834" stroke-dashoffset="0" stroke-miterlimit="4" stroke-linejoin="round" stroke-linecap="round" stroke-width="5" fill="#009800"/>
   <path d="m-3754.219971,2147.899902c20.27002,-9.159912 40.639893,-61.069824 69.030029,-84.929932c-31.300049,78.409912 -42.600098,86.370117 -69.030029,84.929932z" id="path5836" stroke-dashoffset="0" stroke-miterlimit="4" stroke-linejoin="round" stroke-linecap="round" stroke-width="5" fill="#009800"/>
   <path d="m-3897.27002,2130.370117c12.679932,-15.090088 17.679932,-39.51001 39.27002,-44.830078c-11.719971,15.830078 -17.51001,39.780029 -39.27002,44.830078z" id="path5838" stroke-dashoffset="0" stroke-miterlimit="4" stroke-linejoin="round" stroke-linecap="round" stroke-width="5" fill="#009800"/>
   <path d="m-3976.070068,2105.060059c-10.25,-21.320068 -21.089844,-42.660156 -36.169922,-61.040039c42.02002,18.969971 55.649902,50.300049 36.169922,61.040039z" id="path5840" stroke-dashoffset="0" stroke-miterlimit="4" stroke-linejoin="round" stroke-linecap="round" stroke-width="5" fill="#009800"/>
   <path d="m-3782.679932,2101.689941c18.25,-21.319824 39.839844,-40.699951 65.959961,-51.72998c-23,11.949951 -42.080078,44.870117 -65.959961,51.72998z" id="path5842" stroke-dashoffset="0" stroke-miterlimit="4" stroke-linejoin="round" stroke-linecap="round" stroke-width="5" fill="#009800"/>
  </g>
  <g id="g5844" display="inline" fill="#008c00" opacity="0.69778">
   <path id="path5846" d="m-2956.219971,2326.850098c-12.959961,-57.300049 -65.419922,-104.150146 -110.76001,-139.780029c58.290039,5.969971 98.619873,69.929932 124.040039,117.939941c2.569824,8.969971 -2.449951,22.189941 -13.280029,21.840088z" stroke-dashoffset="0" stroke-miterlimit="4" stroke-linejoin="round" stroke-linecap="round" stroke-width="5" fill="#008c00"/>
   <path id="path5848" d="m-2881.639893,2318.169922c16.919922,-30.069824 -35.480225,-114.77002 -26.26001,-150.659912c29.289795,54.48999 47.23999,92.360107 42.02002,140.919922c-3.420166,5.670166 -10.5,6.570068 -15.76001,9.73999z" stroke-dashoffset="0" stroke-miterlimit="4" stroke-linejoin="round" stroke-linecap="round" stroke-width="5" fill="#008c00"/>
   <path id="path5850" d="m-2807.129883,2315.810059c25.25,-47.25 55.259766,-94.920166 108.539795,-113.320068c-29.530029,20.459961 -63.099854,41.02002 -76.159912,76.459961c-6.850098,14.830078 -14.699951,32.880127 -32.379883,36.860107z" stroke-dashoffset="0" stroke-miterlimit="4" stroke-linejoin="round" stroke-linecap="round" stroke-width="5" fill="#008c00"/>
   <path id="path5852" d="m-2698.360107,2324.77002c20.27002,-9.159912 40.640137,-61.070068 69.030029,-84.929932c-31.299805,78.409912 -42.599854,86.369873 -69.030029,84.929932z" stroke-dashoffset="0" stroke-miterlimit="4" stroke-linejoin="round" stroke-linecap="round" stroke-width="5" fill="#008c00"/>
   <path id="path5854" d="m-2841.419922,2307.23999c12.679932,-15.090088 17.689941,-39.51001 39.27002,-44.830078c-11.710205,15.830078 -17.5,39.780029 -39.27002,44.830078z" stroke-dashoffset="0" stroke-miterlimit="4" stroke-linejoin="round" stroke-linecap="round" stroke-width="5" fill="#008c00"/>
   <path id="path5856" d="m-2920.209961,2281.929932c-10.25,-21.319824 -21.090088,-42.659912 -36.169922,-61.040039c42.019775,18.970215 55.649902,50.300049 36.169922,61.040039z" stroke-dashoffset="0" stroke-miterlimit="4" stroke-linejoin="round" stroke-linecap="round" stroke-width="5" fill="#008c00"/>
   <path id="path5858" d="m-2726.830078,2278.560059c18.26001,-21.320068 39.850098,-40.699951 65.959961,-51.72998c-22.98999,11.949951 -42.069824,44.869873 -65.959961,51.72998z" stroke-dashoffset="0" stroke-miterlimit="4" stroke-linejoin="round" stroke-linecap="round" stroke-width="5" fill="#008c00"/>
  </g>
  <g id="g5860" display="inline" fill="#008c00" opacity="0.69778">
   <path d="m2693.067139,1559.572876c-12.949951,-57.300049 -65.419922,-104.149902 -110.75,-139.780029c58.280029,5.959961 98.620117,69.920166 124.030029,117.930176c2.580078,8.97998 -2.439941,22.199951 -13.280029,21.849854z" id="path5862" stroke-dashoffset="0" stroke-miterlimit="4" stroke-linejoin="round" stroke-linecap="round" stroke-width="5" fill="#008c00"/>
   <path d="m2767.647217,1550.892944c16.919922,-30.070068 -35.47998,-114.77002 -26.25,-150.659912c29.290039,54.47998 47.23999,92.359863 42.01001,140.909912c-3.419922,5.679932 -10.5,6.570068 -15.76001,9.75z" id="path5864" stroke-dashoffset="0" stroke-miterlimit="4" stroke-linejoin="round" stroke-linecap="round" stroke-width="5" fill="#008c00"/>
   <path d="m2842.157227,1548.522827c25.25,-47.25 55.26001,-94.919922 108.540039,-113.309814c-29.530029,20.459961 -63.090088,41.02002 -76.160156,76.459961c-6.839844,14.829834 -14.689941,32.869873 -32.379883,36.849854z" id="path5866" stroke-dashoffset="0" stroke-miterlimit="4" stroke-linejoin="round" stroke-linecap="round" stroke-width="5" fill="#008c00"/>
   <path d="m2950.937256,1557.483032c20.26001,-9.160156 40.629883,-61.060059 69.030029,-84.930176c-31.310059,78.420166 -42.610107,86.370117 -69.030029,84.930176z" id="path5868" stroke-dashoffset="0" stroke-miterlimit="4" stroke-linejoin="round" stroke-linecap="round" stroke-width="5" fill="#008c00"/>
   <path d="m2807.877197,1539.953003c12.679932,-15.090088 17.679932,-39.51001 39.27002,-44.820068c-11.709961,15.820068 -17.51001,39.780029 -39.27002,44.820068z" id="path5870" stroke-dashoffset="0" stroke-miterlimit="4" stroke-linejoin="round" stroke-linecap="round" stroke-width="5" fill="#008c00"/>
   <path d="m2729.077148,1514.652954c-10.25,-21.320068 -21.089844,-42.660156 -36.159912,-61.050049c42.01001,18.969971 55.639893,50.300049 36.159912,61.050049z" id="path5872" stroke-dashoffset="0" stroke-miterlimit="4" stroke-linejoin="round" stroke-linecap="round" stroke-width="5" fill="#008c00"/>
   <path d="m2922.467285,1511.272827c18.25,-21.309814 39.839844,-40.689941 65.959961,-51.719971c-22.98999,11.939941 -42.080078,44.870117 -65.959961,51.719971z" id="path5874" stroke-dashoffset="0" stroke-miterlimit="4" stroke-linejoin="round" stroke-linecap="round" stroke-width="5" fill="#008c00"/>
  </g>
  <g id="g5876" display="inline" fill="#008c00" opacity="0.69778">
   <path d="m-4424.430176,2802.929932c-12.949707,-57.300049 -65.419922,-104.149902 -110.75,-139.780029c58.280273,5.970215 98.620117,69.930176 124.040039,117.940186c2.570313,8.969971 -2.449707,22.189941 -13.290039,21.839844z" id="path5878" stroke-dashoffset="0" stroke-miterlimit="4" stroke-linejoin="round" stroke-linecap="round" stroke-width="5" fill="#008c00"/>
   <path d="m-4349.850098,2794.25c16.930176,-30.070068 -35.47998,-114.77002 -26.25,-150.659912c29.290039,54.48999 47.240234,92.359863 42.010254,140.919922c-3.410156,5.669922 -10.5,6.570068 -15.760254,9.73999z" id="path5880" stroke-dashoffset="0" stroke-miterlimit="4" stroke-linejoin="round" stroke-linecap="round" stroke-width="5" fill="#008c00"/>
   <path d="m-4275.330078,2791.889893c25.240234,-47.25 55.25,-94.919922 108.530273,-113.319824c-29.52002,20.459961 -63.090332,41.02002 -76.150391,76.459961c-6.849609,14.830078 -14.699707,32.879883 -32.379883,36.859863z" id="path5882" stroke-dashoffset="0" stroke-miterlimit="4" stroke-linejoin="round" stroke-linecap="round" stroke-width="5" fill="#008c00"/>
   <path d="m-4166.560059,2800.850098c20.260254,-9.160156 40.629883,-61.070068 69.030273,-84.930176c-31.310059,78.410156 -42.600098,86.370117 -69.030273,84.930176z" id="path5884" stroke-dashoffset="0" stroke-miterlimit="4" stroke-linejoin="round" stroke-linecap="round" stroke-width="5" fill="#008c00"/>
   <path d="m-4309.620117,2783.320068c12.680176,-15.090088 17.680176,-39.51001 39.27002,-44.830078c-11.709961,15.830078 -17.509766,39.780029 -39.27002,44.830078z" id="path5886" stroke-dashoffset="0" stroke-miterlimit="4" stroke-linejoin="round" stroke-linecap="round" stroke-width="5" fill="#008c00"/>
   <path d="m-4388.419922,2758.01001c-10.25,-21.320068 -21.080078,-42.659912 -36.160156,-61.040039c42.010254,18.969971 55.649902,50.300049 36.160156,61.040039z" id="path5888" stroke-dashoffset="0" stroke-miterlimit="4" stroke-linejoin="round" stroke-linecap="round" stroke-width="5" fill="#008c00"/>
   <path d="m-4195.029785,2754.639893c18.25,-21.319824 39.849609,-40.699951 65.959961,-51.72998c-22.990234,11.950195 -42.080078,44.870117 -65.959961,51.72998z" id="path5890" stroke-dashoffset="0" stroke-miterlimit="4" stroke-linejoin="round" stroke-linecap="round" stroke-width="5" fill="#008c00"/>
  </g>
  <g id="g5892" display="inline" fill="#008c00" opacity="0.69778">
   <path id="path5894" d="m5120.830078,3136.379883c-12.950195,-57.299805 -65.410156,-104.149902 -110.75,-139.769775c58.279785,5.959961 98.620117,69.919922 124.040039,117.929932c2.569824,8.97998 -2.450195,22.199951 -13.290039,21.839844z" stroke-dashoffset="0" stroke-miterlimit="4" stroke-linejoin="round" stroke-linecap="round" stroke-width="5" fill="#008c00"/>
   <path id="path5896" d="m5195.419922,3127.709961c16.919922,-30.080078 -35.47998,-114.77002 -26.259766,-150.659912c29.290039,54.47998 47.239746,92.349854 42.009766,140.909912c-3.410156,5.679932 -10.489746,6.570068 -15.75,9.75z" stroke-dashoffset="0" stroke-miterlimit="4" stroke-linejoin="round" stroke-linecap="round" stroke-width="5" fill="#008c00"/>
   <path id="path5898" d="m5269.930176,3125.340088c25.25,-47.25 55.259766,-94.920166 108.540039,-113.320068c-29.530273,20.459961 -63.100098,41.030029 -76.160156,76.459961c-6.850098,14.830078 -14.700195,32.880127 -32.379883,36.860107z" stroke-dashoffset="0" stroke-miterlimit="4" stroke-linejoin="round" stroke-linecap="round" stroke-width="5" fill="#008c00"/>
   <path id="path5900" d="m5378.700195,3134.300049c20.259766,-9.160156 40.629883,-61.070068 69.029785,-84.929932c-31.310059,78.419922 -42.600098,86.369873 -69.029785,84.929932z" stroke-dashoffset="0" stroke-miterlimit="4" stroke-linejoin="round" stroke-linecap="round" stroke-width="5" fill="#008c00"/>
   <path id="path5902" d="m5235.640137,3116.77002c12.679688,-15.090088 17.679688,-39.51001 39.27002,-44.820068c-11.709961,15.820068 -17.5,39.780029 -39.27002,44.820068z" stroke-dashoffset="0" stroke-miterlimit="4" stroke-linejoin="round" stroke-linecap="round" stroke-width="5" fill="#008c00"/>
   <path id="path5904" d="m5156.839844,3091.469971c-10.25,-21.330078 -21.080078,-42.659912 -36.159668,-61.050049c42.02002,18.969971 55.649902,50.300049 36.159668,61.050049z" stroke-dashoffset="0" stroke-miterlimit="4" stroke-linejoin="round" stroke-linecap="round" stroke-width="5" fill="#008c00"/>
   <path id="path5906" d="m5350.22998,3088.090088c18.260254,-21.310059 39.850098,-40.690186 65.959961,-51.719971c-22.989746,11.939941 -42.069824,44.859863 -65.959961,51.719971z" stroke-dashoffset="0" stroke-miterlimit="4" stroke-linejoin="round" stroke-linecap="round" stroke-width="5" fill="#008c00"/>
  </g>
  <g id="g5811" display="inline" fill="#009800">
   <path id="path5727" d="m1910.656982,833.042297c-12.949951,-57.300049 -65.420166,-104.149902 -110.75,-139.780029c58.280029,5.959961 98.619873,69.919922 124.030029,117.929932c2.579834,8.97998 -2.440186,22.200195 -13.280029,21.850098z" stroke-dashoffset="0" stroke-miterlimit="4" stroke-linejoin="round" stroke-linecap="round" stroke-width="5" fill="#009800"/>
   <path id="path5729" d="m1985.236816,824.362366c16.920166,-30.070068 -35.47998,-114.77002 -26.25,-150.660034c29.290039,54.479858 47.23999,92.359985 42.01001,140.910034c-3.419922,5.679932 -10.5,6.569824 -15.76001,9.75z" stroke-dashoffset="0" stroke-miterlimit="4" stroke-linejoin="round" stroke-linecap="round" stroke-width="5" fill="#009800"/>
   <path id="path5731" d="m2059.746826,822.002258c25.25,-47.26001 55.26001,-94.929932 108.540039,-113.320068c-29.530029,20.460205 -63.089844,41.02002 -76.159912,76.460205c-6.840088,14.829834 -14.689941,32.869873 -32.380127,36.859863z" stroke-dashoffset="0" stroke-miterlimit="4" stroke-linejoin="round" stroke-linecap="round" stroke-width="5" fill="#009800"/>
   <path id="path5733" d="m2168.526855,830.952209c20.26001,-9.159912 40.630127,-61.059814 69.030029,-84.929932c-31.310059,78.419922 -42.609863,86.370117 -69.030029,84.929932z" stroke-dashoffset="0" stroke-miterlimit="4" stroke-linejoin="round" stroke-linecap="round" stroke-width="5" fill="#009800"/>
   <path id="path5735" d="m2025.467041,813.42218c12.679932,-15.089844 17.679932,-39.51001 39.269775,-44.819824c-11.709961,15.819824 -17.51001,39.780029 -39.269775,44.819824z" stroke-dashoffset="0" stroke-miterlimit="4" stroke-linejoin="round" stroke-linecap="round" stroke-width="5" fill="#009800"/>
   <path id="path5737" d="m1946.666992,788.122375c-10.25,-21.320068 -21.090088,-42.660156 -36.160156,-61.050049c42.01001,18.969971 55.650146,50.300049 36.160156,61.050049z" stroke-dashoffset="0" stroke-miterlimit="4" stroke-linejoin="round" stroke-linecap="round" stroke-width="5" fill="#009800"/>
   <path id="path5753" d="m2140.056885,784.742249c18.25,-21.310059 39.840088,-40.689941 65.959961,-51.719971c-22.98999,11.939941 -42.079834,44.870117 -65.959961,51.719971z" stroke-dashoffset="0" stroke-miterlimit="4" stroke-linejoin="round" stroke-linecap="round" stroke-width="5" fill="#009800"/>
  </g>
  <g id="g7741">
   <path d="m7502.089844,4129.140137c-8.369629,4.679688 -29.02002,0.399902 -40.75,1.939941c-12.109863,1.600098 -25.179688,14.569824 -37.449707,12.669922c-11.880371,-1.839844 -19.47998,-16.279785 -28.149902,-20.810059c-8.960449,-4.689941 -27.160156,-3.75 -31.070313,-10.040039c-3.779785,-6.089844 12.359863,-15.949707 15.600098,-22.109863c3.350098,-6.360107 -5.27002,-17.080078 3.759766,-21.620117c8.740234,-4.389893 28.02002,1.709961 39.600098,0.02002c11.950195,-1.76001 24.709961,-12.310059 37.080078,-10.75c11.970215,1.51001 19.859863,12.340088 28.640137,16.689941c9.060059,4.5 33.47998,5.830078 37.629883,11.960205c4.010254,5.929932 -20.560059,12.869873 -23.029785,19.099854c-2.560059,6.430176 6.790039,18.120117 -1.860352,22.950195z" id="path7685" stroke-dashoffset="0" stroke-miterlimit="4" stroke-linejoin="round" stroke-linecap="round" stroke-width="3" fill="#ce5c00"/>
   <path id="path7689" d="m7612.649902,4063.219971c-8.549805,4.580078 -33.049805,-2.26001 -44.839844,0.189941c-11.800293,2.440186 -36.030273,15.550049 -48.950195,14.030029c-12.929688,-1.52002 -19.449707,-13.560059 -30.319824,-17.349854c-10.859863,-3.790039 -30.140137,-3.280029 -35.189941,-8.940186c-5.050293,-5.669922 6.669922,-18.919922 9.709961,-24.819824c3.029785,-5.900146 -5.790039,-16.690186 2.660156,-21.570068c8.439941,-4.880127 34.07959,-3.889893 46.649902,-5.52002c12.580078,-1.619873 26.709961,-9.399902 39.870117,-8.389893c13.159668,1 26.019531,10.77002 36.949707,14.329834c10.930176,3.570068 31.830078,7.52002 37.640137,13.140137c5.810059,5.609863 -8.709961,12.059814 -10.160156,18.169922c-1.439941,6.120117 4.52002,22.149902 -4.02002,26.72998z" stroke-dashoffset="0" stroke-miterlimit="4" stroke-linejoin="round" stroke-linecap="round" stroke-width="3" fill="#fcc916"/>
   <path id="path7691" d="m7216.27002,4227.490234c-9.600098,6.689941 -36.740234,-0.200195 -50.319824,3.169922c-13.590332,3.369629 -37.209961,19.569824 -51.880371,17.659668c-14.669922,-1.909668 -23.089844,-18.189941 -35.07959,-23.719727c-12,-5.530273 -35.380371,-6.25 -40.910156,-14.459961c-5.540039,-8.220215 8.790039,-24.810059 11.850098,-33.410156c3.069824,-8.600098 -6.330078,-23.899902 3.199707,-30.859863c9.52002,-6.970215 37.450195,-5.320313 51.590332,-7.950195c14.139648,-2.629883 30.689941,-14.060059 45.509766,-12.609863c14.819824,1.449707 27.680176,15.689941 39.72998,21.02002c12.049805,5.330078 36.560059,10.029785 42.629883,18.209961c6.070313,8.180176 -10.22998,18.669922 -12.179688,27.469727c-1.939941,8.790039 5.449707,28.780273 -4.140137,35.480469z" stroke-dashoffset="0" stroke-miterlimit="4" stroke-linejoin="round" stroke-linecap="round" stroke-width="3" fill="#ad7fa8"/>
   <path d="m7415.430176,4283.859863c-10.760254,5.880371 -31.300293,6.950195 -46.580078,9.010254c-15.280273,2.060059 -37.640137,11.949707 -52.680176,9.540039c-15.040039,-2.419922 -28.739746,-14.320313 -39.699707,-19.990234c-10.950195,-5.669922 -30.830078,-11.429688 -35.460449,-19.189941c-4.639648,-7.759766 10.260254,-19.709961 13.900391,-27.370117c3.639648,-7.669922 -0.550293,-22.639648 10.669922,-28.159668c11.209961,-5.52002 38.859863,-2.130371 53.449707,-4.600098c14.580078,-2.470215 28.710449,-11.040039 43.870117,-9.030273c15.169922,2 28.790039,14.070313 39.700195,19.97998c10.899902,5.92041 39.469727,8.830078 44.409668,16.400391c4.950195,7.569824 -10.439941,20.029785 -14.519531,27.57959c-4.080078,7.560059 -6.300293,19.94043 -17.060059,25.830078z" id="path7687" stroke-dashoffset="0" stroke-miterlimit="4" stroke-linejoin="round" stroke-linecap="round" stroke-width="3" fill="#f57900"/>
   <path id="path7693" d="m7254.490234,4543.160156c-13.69043,8.5 -47.480469,0.72998 -66.660156,3.529785c-19.810059,2.910156 -41.200195,26.47998 -61.27002,23.040039c-19.439941,-3.339844 -31.859863,-29.600098 -46.060059,-37.850098c-14.660156,-8.529785 -44.430176,-6.819824 -50.810059,-18.25c-6.189941,-11.069824 20.209961,-29 25.52002,-40.209961c5.47998,-11.569824 -8.629883,-31.060059 6.140137,-39.310059c14.299805,-7.989746 45.850098,3.110352 64.779785,0.02002c19.560059,-3.189941 40.430176,-22.379883 60.660156,-19.540039c19.580078,2.75 32.5,22.439941 46.850098,30.360352c14.830078,8.179688 54.77002,10.589844 61.560059,21.739746c6.569824,10.780273 -33.620117,23.410156 -37.67041,34.740234c-4.189941,11.699707 11.110352,32.949707 -3.039551,41.72998z" stroke-dashoffset="0" stroke-miterlimit="4" stroke-linejoin="round" stroke-linecap="round" stroke-width="3" fill="#ce5c00"/>
   <path d="m7462.109863,4421.419922c-11.330078,6.700195 -43.379883,-0.199707 -59.409668,3.169922c-16.040039,3.380371 -43.92041,19.570313 -61.240234,17.660156c-17.319824,-1.910156 -27.27002,-18.180176 -41.430176,-23.720215c-14.169922,-5.529785 -41.759766,-6.239746 -48.299805,-14.459961c-6.540039,-8.219727 10.390137,-24.810059 14,-33.399902c3.620117,-8.600098 -7.470215,-23.899902 3.77002,-30.870117c11.240234,-6.969727 44.220215,-5.30957 60.910156,-7.939941c16.689941,-2.639648 36.22998,-14.069824 53.72998,-12.619629c17.5,1.449707 32.689941,15.689941 46.909668,21.019531c14.22998,5.330078 43.160156,10.040039 50.330078,18.220215c7.160156,8.180176 -12.080078,18.669922 -14.379883,27.459961c-2.290039,8.790039 6.439941,28.790039 -4.890137,35.47998z" id="path7695" stroke-dashoffset="0" stroke-miterlimit="4" stroke-linejoin="round" stroke-linecap="round" stroke-width="3" fill="#3465a4"/>
   <path d="m7654.620117,4519.009766c-13.560059,7.400391 -52.439941,-3.649902 -71.160156,0.300293c-18.72998,3.939941 -57.180176,25.120117 -77.689941,22.669922c-20.52002,-2.450195 -30.870117,-21.910156 -48.109863,-28.040039c-17.25,-6.129883 -47.840332,-5.290039 -55.860352,-14.439941c-8.009766,-9.160156 10.590332,-30.580078 15.410156,-40.109863c4.819824,-9.530273 -9.180176,-26.959961 4.22998,-34.860352c13.399902,-7.889648 54.080078,-6.289551 74.040039,-8.919922c19.950195,-2.619629 42.379883,-15.189941 63.27002,-13.560059c20.879883,1.620117 41.290039,17.400391 58.640137,23.17041c17.350098,5.759766 50.52002,12.149902 59.739746,21.219727c9.220215,9.069824 -13.830078,19.490234 -16.120117,29.379883c-2.289551,9.880371 7.17041,35.790039 -6.389648,43.189941z" id="path7697" stroke-dashoffset="0" stroke-miterlimit="4" stroke-linejoin="round" stroke-linecap="round" stroke-width="3" fill="#fcaf3e"/>
   <path d="m7940.490234,4505.589844c-16.260254,10.450195 -56.360352,0.890137 -79.120117,4.340332c-23.510254,3.569824 -48.890137,32.540039 -72.720215,28.310059c-23.060059,-4.100098 -37.810059,-36.370117 -54.649902,-46.510254c-17.399902,-10.47998 -52.740234,-8.379883 -60.310059,-22.430176c-7.339844,-13.599609 23.990234,-35.639648 30.290039,-49.409668c6.5,-14.220215 -10.239746,-38.160156 7.279785,-48.310059c16.970215,-9.820313 54.42041,3.830078 76.890137,0.029785c23.209961,-3.919922 47.97998,-27.509766 71.990234,-24.02002c23.239746,3.380371 38.569824,27.580078 55.600098,37.310059c17.599609,10.060059 65,13.02002 73.05957,26.709961c7.800293,13.260254 -39.909668,28.780273 -44.709961,42.700195c-4.969727,14.370117 13.180176,40.489746 -3.599609,51.279785z" id="path7699" stroke-dashoffset="0" stroke-miterlimit="4" stroke-linejoin="round" stroke-linecap="round" stroke-width="3" fill="#cc0000"/>
   <path id="path7701" d="m7705.200195,4797.689941c-15.810059,8.720215 -61.140137,-4.299805 -82.970215,0.350098c-21.830078,4.649902 -66.660156,29.600098 -90.569824,26.709961c-23.919922,-2.890137 -35.990234,-25.799805 -56.090332,-33.02002c-20.099609,-7.220215 -55.759766,-6.239746 -65.109863,-17.02002c-9.350098,-10.790039 12.330078,-36.02002 17.950195,-47.239746c5.619629,-11.22998 -10.689941,-31.760254 4.929688,-41.060059c15.630371,-9.290039 63.060059,-7.410156 86.320313,-10.5c23.259766,-3.100098 49.419922,-17.900391 73.759766,-15.97998c24.350098,1.909668 48.140137,20.5 68.370117,27.279785c20.219727,6.790039 58.899902,14.319824 69.649902,25c10.740234,10.689941 -16.129883,22.959961 -18.799805,34.609863c-2.669922,11.640137 8.369629,42.150391 -7.439941,50.870117z" stroke-dashoffset="0" stroke-miterlimit="4" stroke-linejoin="round" stroke-linecap="round" stroke-width="3" fill="#fcaf3e"/>
   <path id="path7703" d="m8241.120117,4704.959961c-14.969727,9.410156 -57.330078,-0.279785 -78.530273,4.459961c-21.199707,4.72998 -58.049805,27.490234 -80.939941,24.810059c-22.890137,-2.689941 -36.029785,-25.549805 -54.75,-33.319824c-18.719727,-7.77002 -55.199707,-8.780273 -63.839844,-20.320313c-8.640137,-11.540039 13.72998,-34.849609 18.509766,-46.929688c4.780273,-12.080078 -9.879883,-33.570313 4.97998,-43.360352c14.860352,-9.779785 58.44043,-7.459961 80.5,-11.159668c22.060059,-3.700195 47.890137,-19.760254 71.02002,-17.720215c23.120117,2.040039 43.189941,22.040039 62.000488,29.530273c18.799805,7.489746 57.049805,14.099609 66.509766,25.589844c9.469727,11.489746 -15.959961,26.22998 -19,38.580078c-3.030273,12.350098 8.509766,40.439941 -6.459961,49.839844z" stroke-dashoffset="0" stroke-miterlimit="4" stroke-linejoin="round" stroke-linecap="round" stroke-width="3" fill="#ad7fa8"/>
   <path d="m8043.470215,4834.509766c-18.320313,10.300293 -53.310059,12.180176 -79.330078,15.790039c-26.02002,3.620117 -64.110352,20.94043 -89.72998,16.709961c-25.610352,-4.22998 -48.950195,-25.07959 -67.600098,-35.019531c-18.649902,-9.930176 -52.510254,-20.02002 -60.399902,-33.620117c-7.900391,-13.600098 17.47998,-34.540039 23.679688,-47.959961c6.189941,-13.430176 -0.949707,-39.660156 18.160156,-49.330078c19.100098,-9.680176 66.200195,-3.72998 91.029785,-8.060059c24.840332,-4.330078 48.900391,-19.339844 74.72998,-15.830078c25.830078,3.52002 49.040039,24.649902 67.600098,35.02002c18.570313,10.359863 67.240234,15.470215 75.660156,28.72998c8.419922,13.25 -17.790039,35.089844 -24.740234,48.319824c-6.949707,13.240234 -10.739746,34.94043 -29.05957,45.25z" id="path7705" stroke-dashoffset="0" stroke-miterlimit="4" stroke-linejoin="round" stroke-linecap="round" stroke-width="3" fill="#f57900"/>
   <path d="m7683.850098,4225.080078c-13.390137,7 -51.780273,-3.450195 -70.260254,0.279785c-18.47998,3.740234 -56.439941,23.77002 -76.699707,21.450195c-20.25,-2.319824 -30.470215,-20.720215 -47.490234,-26.52002c-17.029785,-5.799805 -47.22998,-5.010254 -55.140137,-13.660156c-7.919922,-8.659668 10.450195,-28.919922 15.200195,-37.939941c4.760254,-9.009766 -9.060059,-25.5 4.180176,-32.959961c13.22998,-7.470215 53.399902,-5.959961 73.089844,-8.439941c19.700195,-2.47998 41.850098,-14.370117 62.470215,-12.830078c20.619629,1.540039 40.759766,16.459961 57.889648,21.910156c17.130371,5.449707 49.880371,11.5 58.97998,20.080078c9.100098,8.57959 -13.649902,18.429688 -15.919922,27.779785c-2.259766,9.350098 7.090332,33.850098 -6.299805,40.850098z" id="path7707" stroke-dashoffset="0" stroke-miterlimit="4" stroke-linejoin="round" stroke-linecap="round" stroke-width="3" fill="#fcc916"/>
   <path id="path7709" d="m7162.52002,4034.959961c-10.959961,5.969971 -37.97998,0.51001 -53.319824,2.47998c-15.850098,2.040039 -32.950195,18.600098 -49.010254,16.180176c-15.549805,-2.350098 -25.489746,-20.790039 -36.839844,-26.590088c-11.72998,-5.98999 -35.540039,-4.790039 -40.649902,-12.820068c-4.94043,-7.780029 16.179688,-20.369873 20.419922,-28.23999c4.379883,-8.129883 -6.899902,-21.820068 4.909668,-27.619873c11.44043,-5.620117 36.67041,2.189941 51.820313,0.01001c15.640137,-2.23999 32.339844,-15.720215 48.52002,-13.730225c15.659668,1.940186 25.989746,15.77002 37.469727,21.330078c11.860352,5.75 43.810059,7.449951 49.240234,15.27002c5.25,7.580078 -26.899902,16.449951 -30.129883,24.409912c-3.350098,8.220215 8.879883,23.150146 -2.430176,29.320068z" stroke-dashoffset="0" stroke-miterlimit="4" stroke-linejoin="round" stroke-linecap="round" stroke-width="3" fill="#ce5c00"/>
   <path d="m7893.25,4640.529785c-17.169922,7.760254 -59.52002,0.660156 -83.560059,3.220215c-24.839844,2.649902 -51.640137,24.180176 -76.810059,21.029785c-24.359863,-3.039551 -39.929688,-27.02002 -57.719727,-34.549805c-18.380371,-7.790039 -55.700195,-6.22998 -63.709961,-16.669922c-7.740234,-10.100098 25.349609,-26.470215 32,-36.700195c6.869629,-10.569824 -10.820313,-28.359863 7.689941,-35.899902c17.919922,-7.290039 57.47998,2.850098 81.209961,0.02002c24.52002,-2.910156 50.679688,-20.439941 76.040039,-17.839844c24.549805,2.509766 40.72998,20.489746 58.72998,27.719727c18.580078,7.470215 68.649902,9.669922 77.159668,19.850098c8.240234,9.839844 -42.149902,21.370117 -47.219727,31.709961c-5.25,10.689941 13.919922,30.089844 -3.810059,38.109863z" id="path7711" stroke-dashoffset="0" stroke-miterlimit="4" stroke-linejoin="round" stroke-linecap="round" stroke-width="3" fill="#ce5c00"/>
   <path id="path7713" d="m7494.660156,4626.410156c-13.150391,8.699707 -45.580078,0.739746 -63.990234,3.609863c-19.02002,2.970215 -39.549805,27.089844 -58.819824,23.560059c-18.660156,-3.410156 -30.590332,-30.27002 -44.209961,-38.709961c-14.080078,-8.720215 -42.660156,-6.970215 -48.790039,-18.669922c-5.930176,-11.320313 19.409668,-29.660156 24.5,-41.120117c5.259766,-11.839844 -8.280273,-31.77002 5.899902,-40.220215c13.720215,-8.169922 44.009766,3.189941 62.189941,0.030273c18.77002,-3.27002 38.810059,-22.899902 58.22998,-20c18.800293,2.819824 31.200195,22.959961 44.97998,31.060059c14.22998,8.369629 52.570313,10.839844 59.090332,22.22998c6.30957,11.040039 -32.280273,23.959961 -36.160156,35.540039c-4.02002,11.969727 10.660156,33.709961 -2.919922,42.689941z" stroke-dashoffset="0" stroke-miterlimit="4" stroke-linejoin="round" stroke-linecap="round" stroke-width="3" fill="#f57900"/>
   <path d="m7755.029785,4376.799805c-13.739746,8.410156 -52.629883,-0.25 -72.089844,3.97998c-19.459961,4.240234 -53.299805,24.590332 -74.310059,22.19043c-21.02002,-2.400391 -33.089844,-22.850098 -50.27002,-29.800293c-17.189941,-6.949707 -50.679688,-7.850098 -58.609863,-18.169922c-7.930176,-10.319824 12.600098,-31.169922 16.990234,-41.970215c4.389648,-10.799805 -9.070313,-30.02002 4.569824,-38.779785c13.640137,-8.75 53.660156,-6.669922 73.910156,-9.97998c20.259766,-3.310059 43.969727,-17.669922 65.199707,-15.850098c21.22998,1.830078 39.660156,19.720215 56.930176,26.410156c17.259766,6.699707 52.370117,12.609863 61.060059,22.890137c8.689941,10.27002 -14.660156,23.459961 -17.439941,34.5c-2.780273,11.049805 7.80957,36.169922 -5.94043,44.57959z" id="path7715" stroke-dashoffset="0" stroke-miterlimit="4" stroke-linejoin="round" stroke-linecap="round" stroke-width="3" fill="#ad7fa8"/>
   <path id="path7717" d="m7276.370117,4125.580078c-10.760254,5.890137 -31.300293,6.959961 -46.580078,9.02002c-15.27002,2.060059 -37.640137,11.949707 -52.680176,9.540039c-15.040039,-2.419922 -28.739746,-14.320313 -39.689941,-19.990234c-10.959961,-5.669922 -30.830078,-11.429688 -35.469727,-19.189941c-4.640137,-7.759766 10.27002,-19.719971 13.899902,-27.379883c3.640137,-7.660156 -0.550293,-22.630127 10.669922,-28.150146c11.220215,-5.52002 38.870117,-2.129883 53.450195,-4.599854c14.57959,-2.469971 28.709961,-11.040039 43.879883,-9.030029c15.159668,2 28.790039,14.060059 39.689941,19.97998c10.899902,5.919922 39.469727,8.830078 44.419922,16.399902c4.939941,7.560059 -10.439941,20.030029 -14.529785,27.579834c-4.080078,7.550293 -6.300293,19.94043 -17.060059,25.820313z" stroke-dashoffset="0" stroke-miterlimit="4" stroke-linejoin="round" stroke-linecap="round" stroke-width="3" fill="#f57900"/>
   <path id="path7719" d="m7244.930176,4349.319824c-9.890137,6.600098 -38.25,-3.25 -51.910156,0.27002c-13.660156,3.52002 -41.700195,22.419922 -56.669922,20.22998c-14.959961,-2.189941 -22.510254,-19.549805 -35.090332,-25.02002c-12.57959,-5.459961 -34.889648,-4.719727 -40.739746,-12.889648c-5.850098,-8.160156 7.720215,-27.27002 11.239746,-35.780273c3.510254,-8.5 -6.699707,-24.049805 3.080078,-31.100098c9.77002,-7.039551 39.450195,-5.609863 54.010254,-7.949707c14.549805,-2.339844 30.909668,-13.560059 46.149902,-12.109863c15.22998,1.449707 30.120117,15.529785 42.77002,20.669922c12.649902,5.139648 36.850098,10.839844 43.580078,18.939941c6.719727,8.089844 -10.090332,17.390137 -11.760254,26.209961c-1.669922,8.810059 5.22998,31.930176 -4.659668,38.529785z" stroke-dashoffset="0" stroke-miterlimit="4" stroke-linejoin="round" stroke-linecap="round" stroke-width="3" fill="#fcaf3e"/>
  </g>
  <path d="m2234.437256,362.74292c1.469971,0.309998 1.839844,1.01001 3.079834,2.070007c1.600098,1.809998 4.860107,7.23999 4.490234,8.119995c-0.480225,1.599976 -4.570068,-7.450012 -7.570068,-10.190002zm27.609863,3.950012c-3.48999,6.529968 -3.819824,7.019958 -6.539795,6.929993c0.579834,-1.210022 2.23999,-2.190002 3.399902,-3.340027c1.25,-1.219971 1.919922,-3.5 3.139893,-3.589966zm-12.27002,0.23999c3.980225,4.27002 4.400146,5.799988 3.730225,6.279968c-1.220215,0.470032 -0.950195,-0.73999 -3.730225,-6.279968zm-7.429932,0.909973c0.97998,-0.159973 1.689941,1.320007 2.080078,2.530029c0.98999,3.080017 1.01001,2.640015 0.339844,2.899963c-0.929932,0.360046 -0.919922,-2.789978 -2.419922,-5.429993zm-6.580078,-0.279968c1.030029,0.029968 1.560059,1.279968 2.280029,2.429993c0.719971,2.200012 2.820068,3.570007 1.340088,3.659973c-1.469971,0.080017 -2.48999,-3.47998 -3.620117,-6.089966zm10.980225,0.849976c3.219971,3.530029 3.909912,4.619995 2.619873,4.77002c-0.840088,0.089966 -0.899902,-0.77002 -1.859863,-2.22998c-0.610107,-0.930054 -1.380127,-1.75 -0.76001,-2.540039z" id="path7788" stroke-dashoffset="0" stroke-miterlimit="4" stroke-linejoin="round" stroke-linecap="round" stroke-width="3" fill="#1e9e00" opacity="0.698"/>
 </g>
</svg>