<?xml version="1.0"?><svg width="2271.4375" height="1665.7122" xmlns="http://www.w3.org/2000/svg" xmlns:xlink="http://www.w3.org/1999/xlink">
 <title>trees sky grass</title>
 <defs>
  <linearGradient id="linearGradient4641">
   <stop stop-color="#fcaf3e" id="stop4643" offset="0"/>
   <stop stop-color="#ffce86" id="stop4645" offset="1"/>
  </linearGradient>
  <linearGradient id="linearGradient4368">
   <stop stop-color="#69d007" offset="0" id="stop4370"/>
   <stop stop-color="#4e9a06" stop-opacity="0" offset="1" id="stop4372"/>
  </linearGradient>
  <linearGradient id="linearGradient4336">
   <stop stop-color="#458905" id="stop4338" offset="0"/>
   <stop stop-color="#4e9a06" stop-opacity="0" id="stop4340" offset="1"/>
  </linearGradient>
  <linearGradient id="linearGradient4328">
   <stop stop-color="#8f5902" id="stop4330" offset="0"/>
   <stop stop-color="#724701" id="stop4332" offset="1"/>
  </linearGradient>
  <linearGradient id="linearGradient4238">
   <stop stop-color="#55a800" id="stop4240" offset="0"/>
   <stop stop-color="#74e400" id="stop4242" offset="1"/>
  </linearGradient>
  <linearGradient id="linearGradient4191">
   <stop stop-color="#007900" id="stop4193" offset="0"/>
   <stop stop-color="#008400" stop-opacity="0" id="stop4195" offset="1"/>
  </linearGradient>
  <linearGradient id="linearGradient4180">
   <stop stop-color="#00a400" id="stop4182" offset="0"/>
   <stop stop-color="#00a400" stop-opacity="0" id="stop4184" offset="1"/>
  </linearGradient>
  <linearGradient id="linearGradient4103">
   <stop stop-color="#00acf4" id="stop4105" offset="0"/>
   <stop stop-color="#a6e5ff" id="stop4107" offset="1"/>
  </linearGradient>
  <linearGradient y2="1.000097" x2="0.474214" y1="-0.189418" x1="0.474214" id="linearGradient4109" xlink:href="#linearGradient4103"/>
  <linearGradient y2="0.524211" x2="0.490848" y1="-0.488398" x1="0.492076" id="linearGradient4200" xlink:href="#linearGradient4191"/>
  <clipPath id="clipPath4234" clipPathUnits="userSpaceOnUse">
   <path fill="#9cf000" stroke-width="3" stroke-linecap="round" stroke-linejoin="round" stroke-miterlimit="4" stroke-dashoffset="0" id="path4236" d="m-778.794556,92.707787c-11.65564,0 -21.0625,5.752144 -21.0625,12.875l0,830.031227c73.681519,-9.907227 153.852417,-15.0625 237.156128,-15.0625c343.817139,0 484.305725,44.117554 822.843811,235.71875c342.857117,194.045776 775.268127,461.424072 -891.406311,464.28125c-60.104736,0.103271 -116.483887,-9.398071 -168.593628,-25.937378l0,150.96875c0,7.122803 9.40686,12.843994 21.0625,12.843628l2229.34375,0c11.655518,0 21.03125,-5.720825 21.03125,-12.843628l0,-640.000122l0,-67.40625l0,-932.593727c0,-7.122856 -9.375732,-12.875 -21.03125,-12.875l-2229.34375,0z"/>
  </clipPath>
  <clipPath id="clipPath4253" clipPathUnits="userSpaceOnUse">
   <path fill="url(#linearGradient4257)" stroke-width="3" stroke-linecap="round" stroke-linejoin="round" stroke-miterlimit="4" stroke-dashoffset="0" id="path4255" d="m195.491058,69.850647c-11.655579,0 -21.0625,5.752136 -21.0625,12.874992l0,830.031197l0,169.96875l0,640c0,7.122925 9.406952,12.843994 21.0625,12.84375l2229.343903,0c11.655273,0 21.03125,-5.720947 21.03125,-12.84375l0,-640l0,-67.40625l0,-932.593697c0,-7.122856 -9.375977,-12.874992 -21.03125,-12.874992l-2229.343903,0z"/>
  </clipPath>
  <linearGradient y2="0.615842" x2="0.474216" y1="-0.116636" x1="0.474216" id="linearGradient4257" xlink:href="#linearGradient4103"/>
  <linearGradient y2="0.581632" x2="0.357287" y1="-0.120598" x1="0.357287" id="linearGradient4261" xlink:href="#linearGradient4180"/>
  <linearGradient y2="1.425902" x2="0.510673" y1="-0.070132" x1="0.5" id="linearGradient4263" xlink:href="#linearGradient4238"/>
  <linearGradient y2="0.534206" x2="0.65567" y1="0.904776" x1="0.762445" id="linearGradient4382" xlink:href="#linearGradient4336"/>
  <linearGradient y2="0.5" x2="0.552103" y1="0" x1="0.43915" id="linearGradient4384" xlink:href="#linearGradient4368"/>
  <linearGradient y2="0.815686" x2="0.683021" y1="0.000174" x1="0.109724" id="linearGradient4386" xlink:href="#linearGradient4368"/>
  <linearGradient y2="0.18054" x2="0.659074" y1="0.75149" x1="0.037881" id="linearGradient4388" xlink:href="#linearGradient4336"/>
  <linearGradient y2="0.5" x2="0.999999" y1="0.5" x1="0.5" id="linearGradient4390" xlink:href="#linearGradient4328"/>
  <filter id="filter4635" height="2.260247" y="-0.630123" width="1.382322" x="-0.191161">
   <feGaussianBlur id="feGaussianBlur4637" stdDeviation="40.507936"/>
  </filter>
  <radialGradient gradientUnits="userSpaceOnUse" gradientTransform="matrix(1.3896636,0.7071731,-0.555426,1.0914658,234.03392,455.11869)" r="284.19949" fy="-27.637817" fx="-640" cy="-27.637817" cx="-640" id="radialGradient4647" xlink:href="#linearGradient4641"/>
  <filter id="filter4962" height="1.528696" y="-0.264348" width="1.496326" x="-0.248163">
   <feGaussianBlur id="feGaussianBlur4964" stdDeviation="57.904762"/>
  </filter>
  <filter id="filter5183" height="1.595822" y="-0.297911" width="1.260664" x="-0.130332">
   <feGaussianBlur id="feGaussianBlur5185" stdDeviation="24.825904"/>
  </filter>
  <clipPath id="clipPath5381" clipPathUnits="userSpaceOnUse">
   <path opacity="0.893333" fill="#fdfdfd" stroke-width="5" stroke-linecap="round" stroke-linejoin="round" stroke-miterlimit="4" stroke-dashoffset="0" id="path5383" d="m618.213013,-43.600197c-48.512512,0 -90.277039,11.929924 -108.884583,29.028996c-4.26886,-0.29483 -8.609497,-0.457607 -13.019836,-0.457581c-57.891602,0 -104.884521,26.515873 -104.884521,59.185261c0,28.591507 35.995605,52.464554 83.786011,57.979874c14.848328,30.919449 81.280579,54.263428 160.924805,54.263428c90.548401,0 164.042603,-30.168213 164.042603,-67.34375l-0.117676,-1.082581c29.333679,-9.232063 48.520508,-24.501534 48.520508,-41.774582l-0.421509,-4.386139c-5.100586,-26.509361 -53.967407,-46.62064 -113.325806,-46.64064c-11.480103,-22.433395 -59.405518,-38.772331 -116.619995,-38.772301l0,0.000015z"/>
  </clipPath>
  <filter id="filter5445" height="1.437617" y="-0.218809" width="1.191452" x="-0.095726">
   <feGaussianBlur id="feGaussianBlur5447" stdDeviation="18.234042"/>
  </filter>
  <clipPath id="clipPath5495" clipPathUnits="userSpaceOnUse">
   <path opacity="0.893333" fill="#fdfdfd" stroke-width="5" stroke-linecap="round" stroke-linejoin="round" stroke-miterlimit="4" stroke-dashoffset="0" d="m1652.498657,-135.028763c-48.512451,0 -90.276978,11.929916 -108.884521,29.028992c-4.268921,-0.294815 -8.609497,-0.457611 -13.019897,-0.457565c-57.891602,0 -104.884399,26.515854 -104.884399,59.185249c0,28.591496 35.995483,52.464558 83.786011,57.979877c14.848267,30.919437 81.280518,54.263401 160.924805,54.263432c90.54834,0 164.042603,-30.168243 164.042603,-67.343781l-0.117798,-1.082561c29.33374,-9.23204 48.520752,-24.501537 48.520752,-41.774593l-0.421875,-4.386124c-5.100586,-26.509361 -53.967285,-46.620644 -113.325684,-46.640633c-11.480103,-22.433411 -59.405396,-38.772339 -116.619995,-38.772293z" id="path5497"/>
  </clipPath>
  <filter id="filter5575" height="1.438104" y="-0.219052" width="1.191665" x="-0.095832">
   <feGaussianBlur id="feGaussianBlur5577" stdDeviation="18.254341"/>
  </filter>
  <clipPath id="clipPath5671" clipPathUnits="userSpaceOnUse">
   <rect fill="url(#linearGradient5675)" stroke-width="3" stroke-linecap="round" stroke-linejoin="round" stroke-miterlimit="4" stroke-dashoffset="0" ry="21.597332" rx="35.341087" y="-242.65996" x="-239.71918" height="1722.9872" width="3815.5286" id="rect5673"/>
  </clipPath>
  <linearGradient y2="1.000097" x2="0.474214" y1="-0.189418" x1="0.474214" id="linearGradient5675" xlink:href="#linearGradient4103"/>
  <clipPath id="clipPath5677" clipPathUnits="userSpaceOnUse">
   <rect fill="url(#linearGradient5681)" stroke-width="3" stroke-linecap="round" stroke-linejoin="round" stroke-miterlimit="4" stroke-dashoffset="0" id="rect5679" width="3599.5803" height="1625.4709" x="-231.16412" y="-230.42346" rx="33.340881" ry="20.374983"/>
  </clipPath>
  <linearGradient y2="1.000097" x2="0.474214" y1="-0.189418" x1="0.474214" id="linearGradient5681" xlink:href="#linearGradient4103"/>
 </defs>
 <metadata id="metadata7">image/svg+xmlSummer LandscapeCarlos AsmatsummergreenlandscapetreecloudsA simple summer landscape featuring green grass, a blue sky and white clouds.</metadata>
 <g>
  <title>Layer 1</title>
  <rect fill="url(#linearGradient4109)" stroke-width="3" stroke-linecap="round" stroke-linejoin="round" stroke-miterlimit="4" stroke-dashoffset="0" ry="12.857142" rx="21.03896" y="-4" x="4.00891" height="1025.7142" width="2271.4285" id="rect2160"/>
  <path fill="url(#linearGradient4263)" stroke-width="3" stroke-linecap="round" stroke-linejoin="round" stroke-miterlimit="4" stroke-dashoffset="0" id="path4202" d="m1215.4375,800.96228c-215.17157,0 -379.221558,34.240723 -506.1875,86.40625c-139.692749,-48.926025 -270.224243,-63.53125 -468.09375,-63.53125c-83.302917,0 -163.475647,5.155029 -237.15625,15.0625l0,809.96875c0,7.122925 9.40692,12.84375 21.0625,12.84375l2229.34375,0c11.655518,0 21.03125,-5.720947 21.03125,-12.84375l0,-707.40625c-167.743164,0.928467 -334.178711,3.173828 -499.125,6.71875c-168.047607,-63.883789 -304.033447,-147.21875 -560.875,-147.21875z"/>
  <path fill="url(#linearGradient4200)" stroke-width="3" stroke-linecap="round" stroke-linejoin="round" stroke-miterlimit="4" stroke-dashoffset="0" clip-path="url(#clipPath4234)" id="path4113" d="m1960.008789,1006.40033c273.656006,51.378845 3923.446289,427.816101 -745.714111,375.714417c-4661.07959,-52.101807 -787.936462,-313.383789 -700.000061,-381.428772c140,-108.331421 353.325745,-195.714233 697.142883,-195.714233c343.817139,0 471.074219,149.328613 748.571289,201.428589z"/>
  <path fill="url(#linearGradient4261)" stroke-width="3" stroke-linecap="round" stroke-linejoin="round" stroke-miterlimit="4" stroke-dashoffset="0" clip-path="url(#clipPath4253)" id="path4111" d="m1060.008911,1063.543091c342.857178,194.045776 775.245605,461.428711 -891.428589,464.285889c-343.816589,0.590332 -565.51532,-312.666016 -565.714233,-464.285889c-0.19043,-148.015076 290.468575,-235.714172 634.285706,-235.714172c343.817078,0 484.319031,44.113037 822.857117,235.714172z"/>
  <path opacity="0.031111" fill="#000000" stroke-width="5" stroke-linecap="round" stroke-linejoin="round" stroke-miterlimit="4" stroke-dashoffset="0" filter="url(#filter5183)" id="path5189" d="m895.303711,1081.828369c64.11554,0 119.312622,11.929932 143.904785,29.029053c5.641968,-0.294922 11.378662,-0.457642 17.20752,-0.457642c76.51123,0 138.618408,26.515869 138.618408,59.185303c0,28.591431 -47.572876,52.4646 -110.734009,57.979858c-19.624023,30.919434 -107.422729,54.263428 -212.6828,54.263428c-119.671326,0 -216.803345,-30.168213 -216.803345,-67.34375l0.155579,-1.082642c-38.76825,-9.231934 -64.126221,-24.501465 -64.126221,-41.774536l0.55719,-4.386108c6.741089,-26.509399 71.324829,-46.620728 149.774597,-46.640625c15.172424,-22.433472 78.511963,-38.772339 154.128296,-38.772339z"/>
  <path opacity="0.288889" fill="#f57900" stroke-width="8.398963" stroke-linecap="round" stroke-linejoin="round" stroke-miterlimit="4" stroke-dashoffset="0" filter="url(#filter4962)" clip-path="url(#clipPath5677)" id="path4649" d="m374.680298,166.708237c0,90.217331 -72.509796,163.891312 -163.210953,165.831345c-90.701149,1.940002 -166.32943,-68.56546 -170.230244,-158.699371c-3.900814,-90.133919 65.356419,-166.84013 155.88979,-172.656559c90.533401,-5.816402 169.140244,61.390125 176.934647,151.273899"/>
  <g transform="matrix(0.527256 0 0 0.53085 911.863 129.379)" id="g4374">
   <path fill="#4e9a06" stroke-width="3" stroke-linecap="round" stroke-linejoin="round" stroke-miterlimit="4" stroke-dashoffset="0" d="m-735.707458,817.941467c-94.875244,0 -178.407715,43.14325 -226.937561,108.40625c-152.312256,26.53241 -267.34375,145.771545 -267.34375,288.750183c0,76.827881 33.231445,146.791748 87.59375,199.21875c-1.229736,10.579712 -1.875,21.337158 -1.875,32.21875c0,164.022949 143.360107,297.125 320.000061,297.125c87.112549,0 166.122803,-32.382813 223.84375,-84.875c39.230469,17.85498 82.358643,27.75 127.593781,27.75c181.371429,0 328.5625,-158.746826 328.5625,-354.3125c0,-195.565674 -147.191071,-354.281372 -328.5625,-354.281372c-2.30249,0 -4.61499,0.042847 -6.90625,0.09375c-37.267365,-93.218994 -137.83255,-160.093811 -255.968781,-160.093811z" id="path4314"/>
   <path fill="url(#linearGradient4382)" stroke-width="3" stroke-linecap="round" stroke-linejoin="round" stroke-miterlimit="4" stroke-dashoffset="0" id="path4305" d="m-144.274445,1332.236206c0.044724,195.700806 -147.074829,354.373169 -328.571472,354.373169c-181.496674,0 -328.61618,-158.672363 -328.571503,-354.373169c-0.044678,-195.700684 147.074829,-354.373169 328.571503,-354.373169c181.496643,0 328.616196,158.672485 328.571472,354.373169z"/>
   <path fill="url(#linearGradient4384)" stroke-width="3" stroke-linecap="round" stroke-linejoin="round" stroke-miterlimit="4" stroke-dashoffset="0" id="path4301" d="m-464.274445,1057.950562c0,132.54834 -121.522797,240 -271.428619,240c-149.905884,0 -271.42865,-107.45166 -271.42865,-240c0,-132.548523 121.522766,-240.000244 271.42865,-240.000244c149.905823,0 271.428619,107.451721 271.428619,240.000244z"/>
   <path fill="url(#linearGradient4386)" stroke-width="3" stroke-linecap="round" stroke-linejoin="round" stroke-miterlimit="4" stroke-dashoffset="0" id="path4303" d="m-567.131714,1215.093384c0.06366,162.569336 -148.340637,294.387939 -331.428528,294.387939c-183.087952,0 -331.492249,-131.818604 -331.428528,-294.387939c-0.063721,-162.569458 148.340576,-294.388123 331.428528,-294.388123c183.087891,0 331.492188,131.818665 331.428528,294.388123z"/>
   <path opacity="0.311111" fill="url(#linearGradient4388)" stroke-width="3" stroke-linecap="round" stroke-linejoin="round" stroke-miterlimit="4" stroke-dashoffset="0" id="path4307" d="m-504.274323,1446.521973c0.054138,164.143066 -143.230621,297.233887 -320.000031,297.233887c-176.76947,0 -320.054138,-133.09082 -320.000061,-297.233887c-0.054077,-164.143066 143.230591,-297.233887 320.000061,-297.233887c176.769409,0 320.054169,133.09082 320.000031,297.233887z"/>
   <path fill="url(#linearGradient4390)" stroke-width="3" stroke-linecap="round" stroke-linejoin="round" stroke-miterlimit="4" stroke-dashoffset="0" d="m-839.804871,1569.750366c167.685303,278.802124 150.512695,-74.751221 238.395996,44.446777c-61.619385,349.512817 50.507568,480.832397 12.121826,848.527954c-123.23877,44.446777 -110.106689,-46.467041 -335.370605,-24.243896c-7.071289,-341.431396 82.83252,-626.294067 84.852783,-868.730835z" id="rect4323"/>
  </g>
  <path opacity="0.698" fill="#1e9e00" stroke-width="3" stroke-linecap="round" stroke-linejoin="round" stroke-miterlimit="4" stroke-dashoffset="0" d="m296.440277,1349.559814c-4.040039,1.387207 -5.050537,4.572754 -8.442719,9.336548c-4.414215,8.175171 -13.355377,32.659424 -12.349365,36.662964c1.333313,7.212036 12.565918,-33.654053 20.792084,-45.999512zm-75.845108,17.827271c9.588425,29.462891 10.490967,31.670044 17.968964,31.242676c-1.58812,-5.436523 -6.147293,-9.86438 -9.346619,-15.030273c-3.410126,-5.506836 -5.263779,-15.805054 -8.622345,-16.212402zm33.703003,1.074219c-10.912872,19.250366 -12.078415,26.183472 -10.240265,28.351318c3.360962,2.092651 2.627274,-3.369385 10.240265,-28.351318zm20.416306,4.128052c-2.686584,-0.738525 -4.643768,5.929077 -5.711639,11.38269c-2.726563,13.924683 -2.757446,11.915039 -0.919556,13.095215c2.533936,1.627075 2.518036,-12.581177 6.631195,-24.477905zm18.07077,-1.278564c-2.811981,0.135864 -4.274689,5.776611 -6.246552,10.983276c-1.980377,9.928223 -7.744507,16.095459 -3.67923,16.472656c4.041748,0.374878 6.838043,-15.672119 9.925781,-27.455933zm-30.138885,3.819092c-8.86795,15.963867 -10.764648,20.860352 -7.202759,21.519653c2.296448,0.424805 2.477722,-3.476074 5.099518,-10.03479c1.688751,-4.224731 3.79425,-7.926758 2.103241,-11.484863z" id="path7786"/>
  <g id="g7640">
   <path fill="#ad7fa8" stroke-width="3" stroke-linecap="round" stroke-linejoin="round" stroke-miterlimit="4" stroke-dashoffset="0" id="path4271" d="m411.024933,1557.016846c0.007751,8.748413 -12.965729,15.842529 -28.971924,15.842529c-16.006256,0 -28.979675,-7.094116 -28.971954,-15.842529c-0.007721,-8.748291 12.965698,-15.842407 28.971954,-15.842407c16.006195,0 28.979675,7.094116 28.971924,15.842407z"/>
   <path fill="#ce5c00" stroke-width="3" stroke-linecap="round" stroke-linejoin="round" stroke-miterlimit="4" stroke-dashoffset="0" d="m296.054962,1402.001465c-1.659973,1.125732 -5.755737,0.096069 -8.080322,0.467896c-2.401367,0.384155 -4.9935,3.505981 -7.427002,3.049561c-2.355499,-0.441772 -3.861725,-3.918701 -5.582031,-5.011353c-1.777222,-1.128784 -5.385956,-0.902466 -6.159882,-2.416382c-0.749176,-1.465454 2.450684,-3.839844 3.093658,-5.32312c0.664154,-1.532471 -1.045807,-4.112427 0.744324,-5.205444c1.73288,-1.058105 5.557434,0.412231 7.852417,0.003052c2.370728,-0.422607 4.900604,-2.963867 7.352753,-2.587891c2.373596,0.364136 3.938995,2.97168 5.678802,4.020142c1.797485,1.083252 6.638947,1.40271 7.461823,2.878052c0.796539,1.427979 -4.075653,3.10022 -4.566559,4.599731c-0.506989,1.549072 1.346832,4.362793 -0.367981,5.525757z" id="path5606"/>
   <path fill="#f57900" stroke-width="3" stroke-linecap="round" stroke-linejoin="round" stroke-miterlimit="4" stroke-dashoffset="0" d="m248.912994,1437.546753c-2.081757,1.146118 -6.057144,1.354736 -9.013184,1.756592c-2.95607,0.401733 -7.283997,2.328613 -10.19429,1.857788c-2.910187,-0.470581 -5.561523,-2.789063 -7.680862,-3.893555c-2.119476,-1.104492 -5.965897,-2.226685 -6.862915,-3.73877c-0.897034,-1.512207 1.98674,-3.841064 2.690521,-5.333496c0.703705,-1.492554 -0.107361,-4.409302 2.063354,-5.485229c2.170807,-1.07605 7.521469,-0.414429 10.343369,-0.895752c2.821793,-0.481201 5.555573,-2.151123 8.489868,-1.760254c2.934387,0.390747 5.571228,2.740723 7.680969,3.893555c2.109665,1.152832 7.638718,1.720581 8.595276,3.19458c0.956436,1.473999 -2.020584,3.9021 -2.810486,5.373657c-0.789948,1.471558 -1.219727,3.88501 -3.30162,5.030884z" id="path5604"/>
   <path fill="#fcc916" stroke-width="3" stroke-linecap="round" stroke-linejoin="round" stroke-miterlimit="4" stroke-dashoffset="0" id="path5600" d="m330.079437,1409.519043c-1.653442,0.892212 -6.394287,-0.439819 -8.676941,0.035889c-2.282684,0.47583 -6.971008,3.029419 -9.472443,2.733887c-2.501465,-0.295532 -3.763306,-2.641235 -5.865723,-3.380249c-2.102509,-0.738892 -5.83197,-0.638306 -6.809814,-1.741943c-0.977753,-1.103638 1.290497,-3.686157 1.878174,-4.835205c0.587677,-1.14917 -1.118805,-3.25061 0.515259,-4.202026c1.634033,-0.951416 6.594818,-0.758911 9.02774,-1.075317c2.432831,-0.316406 5.167786,-1.831543 7.714294,-1.635498c2.546417,0.195923 5.034363,2.098511 7.149567,2.792969c2.115265,0.69458 6.159943,1.465088 7.284088,2.558838c1.124176,1.09375 -1.686218,2.349854 -1.965607,3.541382c-0.279388,1.191528 0.874847,4.315063 -0.778595,5.207275z"/>
   <path fill="#ad7fa8" stroke-width="3" stroke-linecap="round" stroke-linejoin="round" stroke-miterlimit="4" stroke-dashoffset="0" id="path5598" d="m283.089264,1421.842041c-1.856506,1.304077 -7.109222,-0.039185 -9.737854,0.617554c-2.628571,0.65686 -7.198517,3.8125 -10.03717,3.44043c-2.838776,-0.371948 -4.468353,-3.543091 -6.790009,-4.620728c-2.321579,-1.077759 -6.844894,-1.216797 -7.916214,-2.817749c-1.071335,-1.600952 1.702072,-4.833374 2.294739,-6.508423c0.592636,-1.675171 -1.225067,-4.656006 0.617706,-6.013184c1.842682,-1.3573 7.247543,-1.034912 9.983353,-1.547852c2.735748,-0.513062 5.938568,-2.740234 8.806427,-2.457642c2.86792,0.282715 5.356903,3.057251 7.68869,4.095459c2.331879,1.038086 7.07431,1.9552 8.248291,3.548706c1.174042,1.593506 -1.980072,3.637573 -2.355957,5.350586c-0.375854,1.712769 1.054504,5.608643 -0.802002,6.912842z"/>
   <path fill="#ce5c00" stroke-width="3" stroke-linecap="round" stroke-linejoin="round" stroke-miterlimit="4" stroke-dashoffset="0" id="path5594" d="m277.193512,1456.577393c-2.649902,1.65625 -9.188599,0.141235 -12.899475,0.688477c-3.83374,0.565308 -7.97171,5.158813 -11.856552,4.487183c-3.760345,-0.650146 -6.164917,-5.766235 -8.911224,-7.374023c-2.837173,-1.660767 -8.598328,-1.327881 -9.833862,-3.55542c-1.19603,-2.15625 3.91243,-5.650146 4.938782,-7.832642c1.06041,-2.254883 -1.669556,-6.051147 1.18837,-7.659546c2.766357,-1.557007 8.871933,0.606689 12.535553,0.004639c3.784821,-0.62207 7.823456,-4.36145 11.738098,-3.807983c3.789215,0.535645 6.28833,4.372437 9.065826,5.915405c2.869415,1.593872 10.598541,2.063965 11.91217,4.234741c1.271484,2.101318 -6.506592,4.56189 -7.290131,6.768188c-0.809509,2.279297 2.150055,6.4198 -0.587555,8.130981z"/>
   <path fill="#3465a4" stroke-width="3" stroke-linecap="round" stroke-linejoin="round" stroke-miterlimit="4" stroke-dashoffset="0" d="m307.986267,1445.455322c-2.191833,1.304199 -8.393402,-0.039185 -11.496796,0.617676c-3.103394,0.65686 -8.498688,3.812378 -11.850159,3.44043c-3.351471,-0.37207 -5.275391,-3.543091 -8.016327,-4.62085c-2.741058,-1.077759 -8.081329,-1.216797 -9.3461,-2.817749c-1.264801,-1.600708 2.00943,-4.83313 2.709229,-6.508423c0.699677,-1.675171 -1.446411,-4.656006 0.729187,-6.013062c2.175598,-1.3573 8.556763,-1.034912 11.786682,-1.547852c3.229889,-0.513062 7.0112,-2.740356 10.397064,-2.457642c3.385864,0.282593 6.324432,3.057129 9.077484,4.095337c2.75293,1.03833 8.352112,1.955322 9.738098,3.548706c1.385986,1.593506 -2.337708,3.637817 -2.781464,5.350586c-0.443878,1.713013 1.244904,5.608643 -0.946899,6.912842z" id="path5592"/>
   <path fill="#fcaf3e" stroke-width="3" stroke-linecap="round" stroke-linejoin="round" stroke-miterlimit="4" stroke-dashoffset="0" d="m330.382782,1490.444946c-2.624146,1.441772 -10.148285,-0.710571 -13.770935,0.058228c-3.622772,0.768921 -11.063538,4.895508 -15.033508,4.417847c-3.970001,-0.477783 -5.972626,-4.268188 -9.309448,-5.462524c-3.3367,-1.194092 -9.255646,-1.031494 -10.807526,-2.814941c-1.55188,-1.783447 2.048065,-5.956787 2.980774,-7.813843c0.932739,-1.856934 -1.775726,-5.252808 0.81778,-6.790405c2.593384,-1.537476 10.466492,-1.226563 14.327545,-1.737793c3.861115,-0.51123 8.201691,-2.959839 12.243164,-2.643066c4.041504,0.316772 7.989929,3.391235 11.347015,4.513672c3.356995,1.122314 9.776306,2.36731 11.560455,4.13501c1.784119,1.767578 -2.676239,3.797485 -3.119659,5.723022c-0.44339,1.925537 1.388489,6.973022 -1.235657,8.414795z" id="path5590"/>
   <path fill="#cc0000" stroke-width="3" stroke-linecap="round" stroke-linejoin="round" stroke-miterlimit="4" stroke-dashoffset="0" d="m377.097961,1513.021851c-3.144897,2.0354 -10.904968,0.173706 -15.309082,0.846191c-4.549866,0.694702 -9.460938,6.339233 -14.07132,5.514038c-4.46283,-0.79895 -7.316528,-7.085938 -10.575836,-9.061523c-3.367157,-2.041138 -10.204468,-1.631836 -11.670837,-4.369263c-1.419403,-2.64978 4.64328,-6.942993 5.861359,-9.625244c1.258392,-2.770752 -1.981415,-7.435791 1.410339,-9.412354c3.283142,-1.913208 10.529236,0.745605 14.877197,0.005615c4.491852,-0.764282 9.284882,-5.359375 13.930756,-4.679321c4.49707,0.658203 7.463013,5.373291 10.759338,7.269043c3.405396,1.95874 12.578186,2.536499 14.137207,5.203979c1.509094,2.582031 -7.721863,5.605835 -8.651764,8.317261c-0.960724,2.800903 2.551636,7.888916 -0.697357,9.991577z" id="path5586"/>
   <path fill="#fcaf3e" stroke-width="3" stroke-linecap="round" stroke-linejoin="round" stroke-miterlimit="4" stroke-dashoffset="0" id="path5582" d="m332.350128,1548.675293c-3.059265,1.698242 -11.830963,-0.837036 -16.054504,0.068726c-4.22348,0.90564 -12.897949,5.766113 -17.526245,5.203491c-4.628418,-0.5625 -6.963013,-5.027466 -10.853149,-6.434082c-3.890167,-1.406738 -10.790466,-1.215088 -12.599701,-3.315796c-1.809113,-2.10083 2.387665,-7.016479 3.475037,-9.203735c1.087311,-2.187378 -2.070068,-6.187378 0.953369,-7.998413c3.023315,-1.811035 12.202118,-1.444702 16.70343,-2.046997c4.501373,-0.602173 9.561676,-3.486328 14.273376,-3.113281c4.711639,0.373169 9.314819,3.994629 13.228485,5.31665c3.913757,1.322144 11.397339,2.788574 13.477325,4.870605c2.079987,2.082153 -3.119812,4.473022 -3.636749,6.741089c-0.516968,2.267944 1.618561,8.213623 -1.440674,9.911743z"/>
   <path fill="#ad7fa8" stroke-width="3" stroke-linecap="round" stroke-linejoin="round" stroke-miterlimit="4" stroke-dashoffset="0" id="path5576" d="m409.469391,1566.034302c-2.896881,1.832031 -11.093231,-0.055054 -15.194916,0.867798c-4.101654,0.922607 -11.232574,5.355591 -15.662048,4.832886c-4.429565,-0.522583 -6.972473,-4.977295 -10.595093,-6.491211c-3.62262,-1.513916 -10.680786,-1.709351 -12.352509,-3.958252c-1.671661,-2.248901 2.655945,-6.789673 3.580719,-9.142944c0.924744,-2.353271 -1.91156,-6.540649 0.963837,-8.447144c2.875366,-1.906738 11.309143,-1.453735 15.578064,-2.174438c4.268921,-0.720703 9.266541,-3.849365 13.741547,-3.452393c4.475159,0.396973 8.358978,4.294678 11.997498,5.753052c3.638672,1.458496 11.038757,2.746704 12.870605,4.985229c1.83197,2.238525 -3.089661,5.110107 -3.676178,7.516357c-0.586548,2.40625 1.645355,7.878906 -1.251526,9.71106z"/>
   <path fill="#f57900" stroke-width="3" stroke-linecap="round" stroke-linejoin="round" stroke-miterlimit="4" stroke-dashoffset="0" d="m372.787842,1571.591919c-3.545654,2.007813 -10.316406,2.373657 -15.350922,3.077515c-5.034607,0.703979 -12.405792,4.079712 -17.362396,3.255127c-4.956512,-0.824585 -9.472015,-4.886841 -13.081787,-6.821899c-3.609589,-1.935181 -10.160614,-3.901367 -11.688385,-6.550659c-1.527863,-2.649414 3.383636,-6.729858 4.582214,-9.344849c1.198578,-2.615112 -0.182831,-7.72522 3.514252,-9.610596c3.697144,-1.885254 12.81012,-0.726074 17.616241,-1.569214c4.806122,-0.84314 9.462067,-3.769043 14.459717,-3.084106c4.997528,0.684692 9.488617,4.80188 13.081696,6.821899c3.593109,2.019897 13.009949,3.014404 14.639008,5.597046c1.62915,2.58252 -3.441193,6.836792 -4.78656,9.415039c-1.345398,2.578247 -2.077484,6.806763 -5.623077,8.814697z" id="path5574"/>
   <path fill="#fcc916" stroke-width="3" stroke-linecap="round" stroke-linejoin="round" stroke-miterlimit="4" stroke-dashoffset="0" d="m354.803345,1461.390259c-2.590668,1.405151 -10.018738,-0.692505 -13.595306,0.056763c-3.576569,0.74939 -10.922394,4.770996 -14.841736,4.305542c-3.919373,-0.465576 -5.896454,-4.15979 -9.190582,-5.32373c-3.294281,-1.163818 -9.137726,-1.005249 -10.6698,-2.743408c-1.531952,-1.738037 2.021973,-5.80542 2.94278,-7.615234c0.920807,-1.809814 -1.753021,-5.119507 0.807281,-6.617798c2.560333,-1.498535 10.333008,-1.195313 14.144958,-1.693604c3.811829,-0.498413 8.097046,-2.884644 12.087006,-2.575928c3.989807,0.308594 7.888,3.305054 11.202179,4.398926c3.31427,1.093872 9.651581,2.307251 11.412933,4.029907c1.761353,1.722656 -2.642059,3.70105 -3.079803,5.577637c-0.437775,1.876465 1.370758,6.795898 -1.21991,8.200928z" id="path5578"/>
   <path fill="#ce5c00" stroke-width="3" stroke-linecap="round" stroke-linejoin="round" stroke-miterlimit="4" stroke-dashoffset="0" id="path5580" d="m224.9935,1397.714478c-2.119629,1.163574 -7.349564,0.099243 -10.317856,0.483643c-3.06636,0.397217 -6.376236,3.624023 -9.483566,3.152222c-3.007782,-0.456543 -4.931061,-4.050659 -7.127731,-5.180176c-2.269333,-1.166626 -6.877365,-0.932739 -7.865616,-2.497681c-0.956635,-1.514771 3.129288,-3.969116 3.950333,-5.502441c0.848099,-1.583862 -1.335403,-4.250732 0.950439,-5.380737c2.212692,-1.093628 7.096313,0.42627 10.026764,0.003418c3.027237,-0.437012 6.257675,-3.063965 9.388824,-2.675049c3.030838,0.376221 5.029694,3.071533 7.251312,4.155396c2.295212,1.119629 8.477325,1.449951 9.528046,2.974854c1.017075,1.476074 -5.204239,3.204712 -5.83107,4.754639c-0.647415,1.601318 1.719727,4.509888 -0.469879,5.711914z"/>
   <path fill="#ce5c00" stroke-width="3" stroke-linecap="round" stroke-linejoin="round" stroke-miterlimit="4" stroke-dashoffset="0" d="m411.743011,1529.835571c-3.321686,1.77002 -11.517944,0.151001 -16.169586,0.735962c-4.805603,0.604126 -9.992676,5.512817 -14.862274,4.795166c-4.713776,-0.694824 -7.727844,-6.162109 -11.17038,-7.880371c-3.556427,-1.774902 -10.778107,-1.419067 -12.326874,-3.799438c-1.499207,-2.304443 4.904297,-6.037964 6.190796,-8.370483c1.329224,-2.409668 -2.092773,-6.466553 1.489594,-8.185425c3.467743,-1.663818 11.121185,0.648438 15.713531,0.004883c4.744354,-0.664673 9.806824,-4.660767 14.713867,-4.069336c4.749847,0.57251 7.882507,4.672729 11.364136,6.321533c3.59671,1.703247 13.285126,2.205688 14.931824,4.525513c1.593933,2.245483 -8.155945,4.875 -9.138123,7.23291c-1.01474,2.435791 2.695129,6.860474 -0.736511,8.689087z" id="path5584"/>
   <path fill="#f57900" stroke-width="3" stroke-linecap="round" stroke-linejoin="round" stroke-miterlimit="4" stroke-dashoffset="0" id="path5588" d="m313.503082,1516.879883c-2.543793,1.694336 -8.82077,0.144531 -12.383118,0.704346c-3.680298,0.578247 -7.65274,5.276733 -11.381958,4.589722c-3.609863,-0.664917 -5.918152,-5.898071 -8.554535,-7.542603c-2.723602,-1.698975 -8.25415,-1.358276 -9.440247,-3.636841c-1.148132,-2.205811 3.755829,-5.779419 4.741119,-8.011963c1.017822,-2.306519 -1.602722,-6.189697 1.140778,-7.834839c2.655609,-1.592529 8.516815,0.620483 12.033813,0.004639c3.633301,-0.63623 7.510284,-4.46106 11.268188,-3.894897c3.637573,0.547852 6.036652,4.472412 8.702972,6.050537c2.754547,1.630371 10.174164,2.111328 11.435242,4.331787c1.220703,2.149414 -6.246002,4.666382 -6.998199,6.923096c-0.77713,2.331543 2.063965,6.56665 -0.564056,8.317017z"/>
   <path fill="#ad7fa8" stroke-width="3" stroke-linecap="round" stroke-linejoin="round" stroke-miterlimit="4" stroke-dashoffset="0" d="m257.259369,1483.860229c-2.393265,1.681274 -9.164734,-0.050415 -12.553329,0.796265c-3.388702,0.846924 -9.279861,4.914795 -12.939377,4.435181c-3.659393,-0.479492 -5.760208,-4.567505 -8.753082,-5.956787c-2.992859,-1.389404 -8.823975,-1.568726 -10.205048,-3.632446c-1.381073,-2.063721 2.194214,-6.230591 2.958221,-8.390259c0.763992,-2.159546 -1.579285,-6.002197 0.796295,-7.751831c2.375443,-1.749512 9.343079,-1.333862 12.869858,-1.995239c3.526764,-0.661377 7.655594,-3.532593 11.352631,-3.168213c3.697037,0.36438 6.905685,3.941162 9.911743,5.279419c3.006104,1.338379 9.119736,2.52063 10.633133,4.574829c1.513367,2.054321 -2.552551,4.689575 -3.037109,6.897705c-0.484528,2.208008 1.359314,7.230103 -1.033936,8.911377z" id="path5596"/>
   <path fill="#f57900" stroke-width="3" stroke-linecap="round" stroke-linejoin="round" stroke-miterlimit="4" stroke-dashoffset="0" id="path5602" d="m268.91745,1397.265137c-2.081787,1.146118 -6.057129,1.354736 -9.013184,1.75647c-2.956085,0.401855 -7.284012,2.328613 -10.194275,1.85791c-2.910217,-0.470581 -5.561523,-2.789185 -7.680908,-3.893677c-2.119446,-1.10437 -5.965866,-2.226685 -6.862885,-3.73877c-0.897018,-1.512085 1.986725,-3.841064 2.690506,-5.333496c0.703705,-1.492554 -0.107346,-4.40918 2.063354,-5.485229c2.170807,-1.07605 7.521469,-0.414429 10.343353,-0.89563c2.821838,-0.481201 5.555588,-2.151245 8.489883,-1.760376c2.934357,0.390869 5.571228,2.740845 7.680969,3.893677c2.10968,1.152832 7.638733,1.720581 8.595245,3.19458c0.956482,1.473999 -2.020508,3.9021 -2.810455,5.373535c-0.789917,1.471558 -1.219757,3.88501 -3.301605,5.031006z"/>
   <path fill="#fcaf3e" stroke-width="3" stroke-linecap="round" stroke-linejoin="round" stroke-miterlimit="4" stroke-dashoffset="0" id="path7636" d="m351.185333,1432.982788c-1.914063,1.286255 -7.402191,-0.634033 -10.044708,0.05188c-2.642517,0.686035 -8.069794,4.367554 -10.965576,3.941528c-2.895844,-0.42627 -4.356506,-3.808105 -6.790436,-4.873657c-2.43396,-1.065308 -6.751282,-0.920166 -7.88327,-2.511353c-1.131866,-1.591309 1.493927,-5.314575 2.174225,-6.971313c0.680328,-1.656738 -1.295166,-4.686646 0.596466,-6.05835c1.891693,-1.371826 7.634521,-1.09436 10.450867,-1.550415c2.816284,-0.456177 5.982391,-2.640747 8.930328,-2.358154c2.947937,0.282593 5.827972,3.025635 8.276611,4.0271c2.4487,1.001343 7.130951,2.112061 8.432312,3.689087c1.301392,1.577026 -1.951935,3.388062 -2.275391,5.105957c-0.323456,1.717896 1.012665,6.221313 -0.901428,7.50769z"/>
  </g>
  <path opacity="0.364445" fill="#323232" stroke-width="3" stroke-linecap="round" stroke-linejoin="round" stroke-miterlimit="4" stroke-dashoffset="0" filter="url(#filter4635)" d="m720.895996,1437.783691c0.026978,41.431152 -109.927124,75.022095 -245.571655,75.022095c-135.644562,0 -245.598618,-33.590942 -245.571732,-75.022095c-0.026886,-41.431152 109.9272,-75.021973 245.571732,-75.021973c135.644531,0 245.598633,33.59082 245.571655,75.021973z" id="path4397"/>
  <path fill="url(#radialGradient4647)" stroke="#fcaf3e" stroke-width="8.398963" stroke-linecap="round" stroke-linejoin="round" stroke-miterlimit="4" stroke-dashoffset="0" clip-path="url(#clipPath5671)" d="m376.778534,203.964767c0,84.030045 -72.070984,152.149826 -160.975128,152.149826c-88.904099,0 -160.975121,-68.119781 -160.975121,-152.149826c0,-84.030029 72.071022,-152.149826 160.975121,-152.149826c88.904144,0 160.975128,68.119797 160.975128,152.149826z" id="path4639"/>
  <path fill="#fdfdfd" stroke-width="5" stroke-linecap="round" stroke-linejoin="round" stroke-miterlimit="4" stroke-dashoffset="0" filter="url(#filter5575)" clip-path="url(#clipPath5495)" id="path4984" d="m1894.594849,145.992279c-46.849976,0 -87.18335,11.59964 -105.15332,28.225342c-4.122559,-0.286652 -8.314331,-0.444946 -12.573608,-0.444901c-55.907837,0 -101.290161,25.781784 -101.290161,57.546768c0,27.799957 34.761963,51.012085 80.914795,56.374756c14.339355,30.063446 78.495117,52.761139 155.410156,52.761169c87.445435,0 158.421021,-29.333069 158.421021,-65.479431l-0.11377,-1.052582c28.328613,-8.97644 46.85791,-23.823242 46.85791,-40.618103l-0.407227,-4.264709c-4.925781,-25.775452 -52.11792,-45.329956 -109.442261,-45.349411c-11.086548,-21.812347 -57.369507,-37.698944 -112.623535,-37.698898z"/>
  <path fill="#fdfdfd" stroke-width="5" stroke-linecap="round" stroke-linejoin="round" stroke-miterlimit="4" stroke-dashoffset="0" filter="url(#filter5445)" clip-path="url(#clipPath5381)" d="m908.371704,246.001892c70.860107,0 131.863525,14.582428 159.042725,35.483307c6.235229,-0.360382 12.575562,-0.559357 19.017578,-0.559296c84.55957,0 153.199829,32.411377 153.199829,72.344482c0,34.948517 -52.577148,64.129517 -122.382324,70.871124c-21.68811,37.794037 -118.722778,66.328339 -235.055481,66.328339c-132.26001,0 -239.609558,-36.875824 -239.609558,-82.316986l0.171936,-1.323242c-42.846436,-11.284729 -70.871826,-29.949219 -70.871826,-51.062775l0.615845,-5.361328c7.450134,-32.403442 78.827698,-56.986267 165.529785,-57.010712c16.768494,-27.421234 86.770874,-47.392944 170.341492,-47.392914z" id="path5187"/>
  <g opacity="0.697778" fill="#009800" display="inline" id="g5828" transform="matrix(-0.203405 0 0 0.540838 -325.578 394.46)">
   <path style="vector-effect: non-scaling-stroke; " fill="#009800" stroke-width="5" stroke-linecap="round" stroke-linejoin="round" stroke-miterlimit="4" stroke-dashoffset="0" id="path5830" d="m-4012.081787,2161.908936c-12.955811,-57.300537 -65.418457,-104.149414 -110.755127,-139.778442c58.284424,5.963867 98.620361,69.925415 124.037842,117.93396c2.572754,8.976318 -2.445068,22.197754 -13.282715,21.844482z"/>
   <path style="vector-effect: non-scaling-stroke; " fill="#009800" stroke-width="5" stroke-linecap="round" stroke-linejoin="round" stroke-miterlimit="4" stroke-dashoffset="0" id="path5832" d="m-3937.501221,2153.232178c16.922363,-30.073486 -35.47998,-114.769653 -26.255859,-150.660034c29.290039,54.484253 47.240967,92.356323 42.014648,140.913452c-3.416748,5.674561 -10.499023,6.567627 -15.758789,9.746582z"/>
   <path style="vector-effect: non-scaling-stroke; " fill="#009800" stroke-width="5" stroke-linecap="round" stroke-linejoin="round" stroke-miterlimit="4" stroke-dashoffset="0" id="path5834" d="m-3862.989014,2150.867432c25.249268,-47.250977 55.258545,-94.921387 108.53833,-113.318726c-29.527588,20.459351 -63.095703,41.024048 -76.157715,76.460327c-6.845215,14.830322 -14.696045,32.876709 -32.380615,36.858398z"/>
   <path style="vector-effect: non-scaling-stroke; " fill="#009800" stroke-width="5" stroke-linecap="round" stroke-linejoin="round" stroke-miterlimit="4" stroke-dashoffset="0" id="path5836" d="m-3754.216064,2159.825684c20.26416,-9.159912 40.634033,-61.067627 69.030518,-84.929199c-31.307129,78.414063 -42.603516,86.36792 -69.030518,84.929199z"/>
   <path style="vector-effect: non-scaling-stroke; " fill="#009800" stroke-width="5" stroke-linecap="round" stroke-linejoin="round" stroke-miterlimit="4" stroke-dashoffset="0" id="path5838" d="m-3897.274658,2142.296143c12.679932,-15.090576 17.682129,-39.510742 39.270264,-44.824707c-11.711182,15.824463 -17.50708,39.780029 -39.270264,44.824707z"/>
   <path style="vector-effect: non-scaling-stroke; " fill="#009800" stroke-width="5" stroke-linecap="round" stroke-linejoin="round" stroke-miterlimit="4" stroke-dashoffset="0" id="path5840" d="m-3976.071777,2116.991211c-10.250244,-21.322998 -21.087646,-42.660889 -36.165527,-61.046875c42.01709,18.97168 55.649658,50.302002 36.165527,61.046875z"/>
   <path style="vector-effect: non-scaling-stroke; " fill="#009800" stroke-width="5" stroke-linecap="round" stroke-linejoin="round" stroke-miterlimit="4" stroke-dashoffset="0" id="path5842" d="m-3782.68335,2113.616211c18.253418,-21.31543 39.844238,-40.695557 65.959717,-51.724365c-22.991943,11.943115 -42.077393,44.868164 -65.959717,51.724365z"/>
  </g>
  <g opacity="0.697778" fill="#008c00" display="inline" transform="matrix(-0.274734 0 0 0.380575 784.549 609.304)" id="g5844">
   <path fill="#008c00" stroke-width="5" stroke-linecap="round" stroke-linejoin="round" stroke-miterlimit="4" stroke-dashoffset="0" d="m-2956.223389,2343.803467c-12.955811,-57.300537 -65.418457,-104.149414 -110.755127,-139.77832c58.284424,5.963867 98.620361,69.925293 124.037842,117.933594c2.572754,8.976318 -2.445068,22.197754 -13.282715,21.844727z" id="path5846"/>
   <path fill="#008c00" stroke-width="5" stroke-linecap="round" stroke-linejoin="round" stroke-miterlimit="4" stroke-dashoffset="0" d="m-2881.642822,2335.126465c16.922363,-30.073486 -35.47998,-114.769287 -26.255859,-150.659668c29.289795,54.484131 47.240967,92.356201 42.014648,140.913086c-3.416748,5.674561 -10.498779,6.567627 -15.758789,9.746582z" id="path5848"/>
   <path fill="#008c00" stroke-width="5" stroke-linecap="round" stroke-linejoin="round" stroke-miterlimit="4" stroke-dashoffset="0" d="m-2807.130615,2332.761963c25.249268,-47.250977 55.258545,-94.921387 108.53833,-113.318604c-29.527588,20.459229 -63.095703,41.023926 -76.157715,76.460205c-6.845215,14.830078 -14.696045,32.876465 -32.380615,36.858398z" id="path5850"/>
   <path fill="#008c00" stroke-width="5" stroke-linecap="round" stroke-linejoin="round" stroke-miterlimit="4" stroke-dashoffset="0" d="m-2698.357666,2341.719971c20.26416,-9.159668 40.634033,-61.067383 69.030518,-84.929199c-31.307129,78.414063 -42.603516,86.36792 -69.030518,84.929199z" id="path5852"/>
   <path fill="#008c00" stroke-width="5" stroke-linecap="round" stroke-linejoin="round" stroke-miterlimit="4" stroke-dashoffset="0" d="m-2841.41626,2324.19043c12.679932,-15.090576 17.682129,-39.510498 39.270264,-44.824463c-11.710938,15.824219 -17.50708,39.779785 -39.270264,44.824463z" id="path5854"/>
   <path fill="#008c00" stroke-width="5" stroke-linecap="round" stroke-linejoin="round" stroke-miterlimit="4" stroke-dashoffset="0" d="m-2920.213379,2298.885742c-10.250244,-21.322998 -21.087646,-42.660889 -36.165527,-61.046875c42.01709,18.971436 55.649414,50.302002 36.165527,61.046875z" id="path5856"/>
   <path fill="#008c00" stroke-width="5" stroke-linecap="round" stroke-linejoin="round" stroke-miterlimit="4" stroke-dashoffset="0" d="m-2726.825195,2295.510742c18.253662,-21.315674 39.844482,-40.695557 65.959961,-51.724365c-22.991943,11.942871 -42.077393,44.868164 -65.959961,51.724365z" id="path5858"/>
  </g>
  <g opacity="0.697778" fill="#008c00" display="inline" id="g5860" transform="matrix(0.314856 0 0 0.466871 1292.07 615.513)">
   <path style="vector-effect: non-scaling-stroke; " fill="#008c00" stroke-width="5" stroke-linecap="round" stroke-linejoin="round" stroke-miterlimit="4" stroke-dashoffset="0" id="path5862" d="m2694.680908,2221.775146c-12.955811,-57.300293 -65.418457,-104.149414 -110.755127,-139.77832c58.284424,5.963867 98.620361,69.925537 124.037842,117.933838c2.572754,8.976318 -2.445068,22.197754 -13.282715,21.844482z"/>
   <path style="vector-effect: non-scaling-stroke; " fill="#008c00" stroke-width="5" stroke-linecap="round" stroke-linejoin="round" stroke-miterlimit="4" stroke-dashoffset="0" id="path5864" d="m2769.261475,2213.098389c16.922363,-30.073486 -35.47998,-114.769531 -26.255859,-150.659912c29.289795,54.484131 47.240967,92.356201 42.014648,140.91333c-3.416748,5.674561 -10.498779,6.567627 -15.758789,9.746582z"/>
   <path style="vector-effect: non-scaling-stroke; " fill="#008c00" stroke-width="5" stroke-linecap="round" stroke-linejoin="round" stroke-miterlimit="4" stroke-dashoffset="0" id="path5866" d="m2843.773682,2210.733643c25.249268,-47.250732 55.258545,-94.921387 108.53833,-113.318604c-29.527588,20.459229 -63.095703,41.02417 -76.157715,76.460449c-6.845215,14.830078 -14.696045,32.876465 -32.380615,36.858154z"/>
   <path style="vector-effect: non-scaling-stroke; " fill="#008c00" stroke-width="5" stroke-linecap="round" stroke-linejoin="round" stroke-miterlimit="4" stroke-dashoffset="0" id="path5868" d="m2952.546631,2219.691895c20.26416,-9.159912 40.634033,-61.067383 69.030518,-84.929199c-31.307129,78.414063 -42.603516,86.36792 -69.030518,84.929199z"/>
   <path style="vector-effect: non-scaling-stroke; " fill="#008c00" stroke-width="5" stroke-linecap="round" stroke-linejoin="round" stroke-miterlimit="4" stroke-dashoffset="0" id="path5870" d="m2809.488037,2202.162354c12.679932,-15.090576 17.682129,-39.510498 39.270264,-44.824463c-11.710938,15.824219 -17.50708,39.779785 -39.270264,44.824463z"/>
   <path style="vector-effect: non-scaling-stroke; " fill="#008c00" stroke-width="5" stroke-linecap="round" stroke-linejoin="round" stroke-miterlimit="4" stroke-dashoffset="0" id="path5872" d="m2730.690918,2176.857666c-10.250244,-21.322998 -21.087646,-42.660889 -36.165527,-61.047119c42.01709,18.97168 55.649414,50.302002 36.165527,61.047119z"/>
   <path style="vector-effect: non-scaling-stroke; " fill="#008c00" stroke-width="5" stroke-linecap="round" stroke-linejoin="round" stroke-miterlimit="4" stroke-dashoffset="0" id="path5874" d="m2924.079102,2173.482666c18.253662,-21.315674 39.844482,-40.695557 65.959961,-51.724609c-22.991943,11.943115 -42.077393,44.868164 -65.959961,51.724609z"/>
  </g>
  <g opacity="0.697778" fill="#008c00" display="inline" id="g5876" transform="matrix(-0.185573 0 0 0.207984 1087.08 767.428)">
   <path style="vector-effect: non-scaling-stroke; " fill="#008c00" stroke-width="5" stroke-linecap="round" stroke-linejoin="round" stroke-miterlimit="4" stroke-dashoffset="0" id="path5878" d="m-4424.427246,2833.950684c-12.955566,-57.300293 -65.418457,-104.14917 -110.754883,-139.778076c58.28418,5.963623 98.620117,69.925293 124.037598,117.933838c2.572754,8.976074 -2.444824,22.19751 -13.282715,21.844238z"/>
   <path style="vector-effect: non-scaling-stroke; " fill="#008c00" stroke-width="5" stroke-linecap="round" stroke-linejoin="round" stroke-miterlimit="4" stroke-dashoffset="0" id="path5880" d="m-4349.84668,2825.273926c16.922363,-30.073242 -35.47998,-114.769287 -26.255859,-150.659668c29.290039,54.484131 47.241211,92.355957 42.014648,140.913086c-3.416504,5.674805 -10.499023,6.567627 -15.758789,9.746582z"/>
   <path style="vector-effect: non-scaling-stroke; " fill="#008c00" stroke-width="5" stroke-linecap="round" stroke-linejoin="round" stroke-miterlimit="4" stroke-dashoffset="0" id="path5882" d="m-4275.334473,2822.90918c25.249023,-47.250732 55.258301,-94.921387 108.538086,-113.318359c-29.527344,20.459229 -63.095703,41.023926 -76.157715,76.460205c-6.845215,14.830078 -14.695801,32.876465 -32.380371,36.858154z"/>
   <path style="vector-effect: non-scaling-stroke; " fill="#008c00" stroke-width="5" stroke-linecap="round" stroke-linejoin="round" stroke-miterlimit="4" stroke-dashoffset="0" id="path5884" d="m-4166.561523,2831.867432c20.26416,-9.159912 40.633789,-61.067383 69.030273,-84.928955c-31.307129,78.413818 -42.603516,86.367676 -69.030273,84.928955z"/>
   <path style="vector-effect: non-scaling-stroke; " fill="#008c00" stroke-width="5" stroke-linecap="round" stroke-linejoin="round" stroke-miterlimit="4" stroke-dashoffset="0" id="path5886" d="m-4309.620117,2814.337891c12.679688,-15.090332 17.682129,-39.510498 39.27002,-44.824463c-11.710938,15.824463 -17.506836,39.779785 -39.27002,44.824463z"/>
   <path style="vector-effect: non-scaling-stroke; " fill="#008c00" stroke-width="5" stroke-linecap="round" stroke-linejoin="round" stroke-miterlimit="4" stroke-dashoffset="0" id="path5888" d="m-4388.416992,2789.033203c-10.250488,-21.322998 -21.087891,-42.660889 -36.165527,-61.046875c42.01709,18.97168 55.649414,50.301758 36.165527,61.046875z"/>
   <path style="vector-effect: non-scaling-stroke; " fill="#008c00" stroke-width="5" stroke-linecap="round" stroke-linejoin="round" stroke-miterlimit="4" stroke-dashoffset="0" id="path5890" d="m-4195.028809,2785.658203c18.253418,-21.31543 39.844238,-40.695557 65.959473,-51.724609c-22.991699,11.943359 -42.077148,44.868164 -65.959473,51.724609z"/>
  </g>
  <g opacity="0.697778" fill="#008c00" display="inline" transform="matrix(0.163282 0 0 0.158672 1180.17 588.841)" id="g5892">
   <path style="vector-effect: non-scaling-stroke; " fill="#008c00" stroke-width="5" stroke-linecap="round" stroke-linejoin="round" stroke-miterlimit="4" stroke-dashoffset="0" d="m5120.834961,3177.043945c-12.956055,-57.300293 -65.418457,-104.14917 -110.755371,-139.778076c58.284668,5.963623 98.620605,69.925293 124.038086,117.933838c2.572754,8.976074 -2.445313,22.19751 -13.282715,21.844238z" id="path5894"/>
   <path style="vector-effect: non-scaling-stroke; " fill="#008c00" stroke-width="5" stroke-linecap="round" stroke-linejoin="round" stroke-miterlimit="4" stroke-dashoffset="0" d="m5195.415527,3168.367188c16.922363,-30.073242 -35.47998,-114.769287 -26.255859,-150.659668c29.290039,54.484131 47.241211,92.355957 42.014648,140.913086c-3.416992,5.674805 -10.499023,6.567627 -15.758789,9.746582z" id="path5896"/>
   <path style="vector-effect: non-scaling-stroke; " fill="#008c00" stroke-width="5" stroke-linecap="round" stroke-linejoin="round" stroke-miterlimit="4" stroke-dashoffset="0" d="m5269.927734,3166.002441c25.249512,-47.250732 55.258789,-94.921387 108.538574,-113.318359c-29.527832,20.459229 -63.095703,41.023926 -76.158203,76.460205c-6.844727,14.830078 -14.695801,32.876465 -32.380371,36.858154z" id="path5898"/>
   <path style="vector-effect: non-scaling-stroke; " fill="#008c00" stroke-width="5" stroke-linecap="round" stroke-linejoin="round" stroke-miterlimit="4" stroke-dashoffset="0" d="m5378.700684,3174.960693c20.26416,-9.159912 40.633789,-61.067383 69.030762,-84.928955c-31.307617,78.413818 -42.604004,86.367676 -69.030762,84.928955z" id="path5900"/>
   <path style="vector-effect: non-scaling-stroke; " fill="#008c00" stroke-width="5" stroke-linecap="round" stroke-linejoin="round" stroke-miterlimit="4" stroke-dashoffset="0" d="m5235.64209,3157.431152c12.680176,-15.090332 17.682129,-39.510498 39.27002,-44.824463c-11.710938,15.824463 -17.506836,39.779785 -39.27002,44.824463z" id="path5902"/>
   <path style="vector-effect: non-scaling-stroke; " fill="#008c00" stroke-width="5" stroke-linecap="round" stroke-linejoin="round" stroke-miterlimit="4" stroke-dashoffset="0" d="m5156.844727,3132.126465c-10.25,-21.322998 -21.087402,-42.660889 -36.165039,-61.046875c42.01709,18.97168 55.649414,50.301758 36.165039,61.046875z" id="path5904"/>
   <path style="vector-effect: non-scaling-stroke; " fill="#008c00" stroke-width="5" stroke-linecap="round" stroke-linejoin="round" stroke-miterlimit="4" stroke-dashoffset="0" d="m5350.233398,3128.751465c18.253418,-21.31543 39.844238,-40.695557 65.959961,-51.724609c-22.992188,11.943359 -42.077637,44.868164 -65.959961,51.724609z" id="path5906"/>
  </g>
  <g fill="#009800" display="inline" transform="matrix(0.372811 0 0 0.479198 -201.836 407.787)" id="g5811">
   <path style="vector-effect: non-scaling-stroke; " fill="#009800" stroke-width="5" stroke-linecap="round" stroke-linejoin="round" stroke-miterlimit="4" stroke-dashoffset="0" d="m2273.561035,2217.469971c-12.955811,-57.300293 -65.418213,-104.149414 -110.755127,-139.77832c58.284668,5.963867 98.620361,69.925537 124.038086,117.933838c2.57251,8.976318 -2.445313,22.197754 -13.282959,21.844482z" id="path5727"/>
   <path style="vector-effect: non-scaling-stroke; " fill="#009800" stroke-width="5" stroke-linecap="round" stroke-linejoin="round" stroke-miterlimit="4" stroke-dashoffset="0" d="m2348.141846,2208.793213c16.922119,-30.073486 -35.47998,-114.769531 -26.255859,-150.659912c29.289795,54.484131 47.240967,92.356201 42.014404,140.91333c-3.416748,5.674561 -10.498779,6.567627 -15.758545,9.746582z" id="path5729"/>
   <path style="vector-effect: non-scaling-stroke; " fill="#009800" stroke-width="5" stroke-linecap="round" stroke-linejoin="round" stroke-miterlimit="4" stroke-dashoffset="0" d="m2422.653809,2206.428467c25.249268,-47.250732 55.258545,-94.921387 108.53833,-113.318604c-29.527588,20.459229 -63.095703,41.02417 -76.157715,76.460449c-6.845215,14.830078 -14.696045,32.876465 -32.380615,36.858154z" id="path5731"/>
   <path style="vector-effect: non-scaling-stroke; " fill="#009800" stroke-width="5" stroke-linecap="round" stroke-linejoin="round" stroke-miterlimit="4" stroke-dashoffset="0" d="m2531.426758,2215.386719c20.26416,-9.159912 40.634033,-61.067383 69.030518,-84.929199c-31.307129,78.414063 -42.603516,86.36792 -69.030518,84.929199z" id="path5733"/>
   <path style="vector-effect: non-scaling-stroke; " fill="#009800" stroke-width="5" stroke-linecap="round" stroke-linejoin="round" stroke-miterlimit="4" stroke-dashoffset="0" d="m2388.368164,2197.857178c12.679932,-15.090576 17.682129,-39.510498 39.270264,-44.824463c-11.710938,15.824219 -17.50708,39.779785 -39.270264,44.824463z" id="path5735"/>
   <path style="vector-effect: non-scaling-stroke; " fill="#009800" stroke-width="5" stroke-linecap="round" stroke-linejoin="round" stroke-miterlimit="4" stroke-dashoffset="0" d="m2309.571045,2172.55249c-10.25,-21.322998 -21.087646,-42.660889 -36.165527,-61.047119c42.01709,18.97168 55.649658,50.302002 36.165527,61.047119z" id="path5737"/>
   <path style="vector-effect: non-scaling-stroke; " fill="#009800" stroke-width="5" stroke-linecap="round" stroke-linejoin="round" stroke-miterlimit="4" stroke-dashoffset="0" d="m2502.959229,2169.17749c18.253662,-21.315674 39.844482,-40.695557 65.959961,-51.724609c-22.991943,11.943115 -42.077393,44.868164 -65.959961,51.724609z" id="path5753"/>
  </g>
  <g transform="matrix(0.132531 0.0197583 -0.00442044 0.0670249 848.568 603.431)" id="g7741">
   <path fill="#ce5c00" stroke-width="3" stroke-linecap="round" stroke-linejoin="round" stroke-miterlimit="4" stroke-dashoffset="0" id="path7685" d="m7505.271484,4224.460449c-8.370605,4.675293 -29.026367,0.398926 -40.749023,1.943848c-12.11084,1.595703 -25.182617,14.560547 -37.45459,12.665039c-11.879395,-1.834961 -19.475098,-16.275391 -28.150391,-20.813477c-8.962891,-4.687988 -27.162109,-3.748047 -31.06543,-10.035645c-3.77832,-6.086426 12.359375,-15.947754 15.601563,-22.108398c3.349121,-6.364746 -5.273926,-17.080078 3.754395,-21.619629c8.73877,-4.394531 28.025879,1.712402 39.599121,0.012695c11.956543,-1.755371 24.714355,-12.310059 37.080566,-10.748047c11.970215,1.512207 19.864746,12.341797 28.63916,16.696777c9.064453,4.498535 33.47998,5.825684 37.630371,11.952637c4.016602,5.931152 -20.554199,12.876465 -23.029785,19.104004c-2.556641,6.434082 6.791992,18.120605 -1.855957,22.950195z"/>
   <path fill="#fcc916" stroke-width="3" stroke-linecap="round" stroke-linejoin="round" stroke-miterlimit="4" stroke-dashoffset="0" d="m7615.828125,4158.541504c-8.544922,4.57959 -33.044922,-2.257324 -44.841309,0.185059c-11.796387,2.441895 -36.024902,15.548828 -48.95166,14.031738c-12.927246,-1.51709 -19.448242,-13.556641 -30.313477,-17.350098c-10.864746,-3.792969 -30.138184,-3.276367 -35.191406,-8.940918c-5.053223,-5.665039 6.668945,-18.92041 9.706055,-24.818359c3.037109,-5.898438 -5.782227,-16.68457 2.662598,-21.567871c8.444336,-4.884033 34.080566,-3.895996 46.653809,-5.519775c12.572754,-1.624023 26.706055,-9.401367 39.866211,-8.39502c13.159668,1.005859 26.016602,10.77124 36.947266,14.336182c10.932129,3.56543 31.833496,7.519531 37.643066,13.133789c5.80957,5.614746 -8.713867,12.062012 -10.158203,18.177734c-1.443359,6.115723 4.521484,22.148438 -4.022949,26.727539z" id="path7689"/>
   <path fill="#ad7fa8" stroke-width="3" stroke-linecap="round" stroke-linejoin="round" stroke-miterlimit="4" stroke-dashoffset="0" d="m7219.447754,4322.808105c-9.59375,6.694336 -36.739258,-0.200684 -50.323242,3.170898c-13.584473,3.371582 -37.200684,19.568359 -51.870605,17.65918c-14.669922,-1.909668 -23.091309,-18.186523 -35.089355,-23.718262c-11.998047,-5.531738 -35.373535,-6.245605 -40.909668,-14.462891c-5.536133,-8.216797 8.795898,-24.808105 11.858398,-33.406738c3.063477,-8.598145 -6.330566,-23.898438 3.192383,-30.864258c9.522949,-6.966797 37.454102,-5.312012 51.592773,-7.944824c14.137695,-2.633301 30.688965,-14.06543 45.509766,-12.614746c14.820801,1.450684 27.683594,15.691895 39.734375,21.020996c12.049805,5.329102 36.558594,10.035645 42.625488,18.215332c6.066895,8.178711 -10.232422,18.671387 -12.175293,27.463379c-1.942871,8.791992 5.449219,28.788086 -4.14502,35.481934z" id="path7691"/>
   <path fill="#f57900" stroke-width="3" stroke-linecap="round" stroke-linejoin="round" stroke-miterlimit="4" stroke-dashoffset="0" id="path7687" d="m7418.608398,4379.175293c-10.758789,5.882324 -31.302734,6.953613 -46.579102,9.016113c-15.276367,2.062012 -37.642578,11.95166 -52.682617,9.536133c-15.039063,-2.416016 -28.740234,-14.316895 -39.693359,-19.98584c-10.952637,-5.668457 -30.830078,-11.428711 -35.46582,-19.19043c-4.63623,-7.761719 10.266602,-19.715332 13.903809,-27.375977c3.636719,-7.661133 -0.554688,-22.631836 10.663086,-28.154785c11.218262,-5.523438 38.869629,-2.127441 53.452637,-4.597168c14.583008,-2.470215 28.710449,-11.041504 43.874512,-9.035645c15.164063,2.005859 28.791016,14.067871 39.693359,19.985352c10.902344,5.91748 39.475586,8.831055 44.418945,16.396973c4.943359,7.566406 -10.441895,20.029297 -14.523926,27.582031c-4.082031,7.553223 -6.303223,19.940918 -17.061523,25.823242z"/>
   <path fill="#ce5c00" stroke-width="3" stroke-linecap="round" stroke-linejoin="round" stroke-miterlimit="4" stroke-dashoffset="0" d="m7257.670898,4638.480469c-13.694824,8.501465 -47.485352,0.725098 -66.663086,3.53418c-19.811523,2.901855 -41.196289,26.479004 -61.271973,23.031738c-19.433594,-3.336914 -31.859375,-29.597168 -46.051758,-37.849121c-14.662109,-8.525391 -44.43457,-6.815918 -50.819824,-18.25c-6.180664,-11.067871 20.219238,-29.000977 25.522949,-40.204102c5.479492,-11.57373 -8.62793,-31.059082 6.140625,-39.314941c14.296875,-7.991211 45.849609,3.114258 64.782227,0.023926c19.55957,-3.192871 40.430176,-22.385742 60.660645,-19.54541c19.582031,2.749512 32.49707,22.443359 46.850586,30.362305c14.828613,8.181152 54.770508,10.594238 61.55957,21.736328c6.571289,10.785645 -33.624512,23.415527 -37.673828,34.740234c-4.183105,11.699707 11.11084,32.95166 -3.036133,41.734863z" id="path7693"/>
   <path fill="#3465a4" stroke-width="3" stroke-linecap="round" stroke-linejoin="round" stroke-miterlimit="4" stroke-dashoffset="0" id="path7695" d="m7465.289063,4516.743164c-11.327148,6.693848 -43.375488,-0.201172 -59.413574,3.17041c-16.037598,3.371582 -43.919434,19.568359 -61.239258,17.658691c-17.319824,-1.90918 -27.262207,-18.186035 -41.427246,-23.717773c-14.165039,-5.531738 -41.762695,-6.245605 -48.298828,-14.462891c-6.536621,-8.216797 10.384277,-24.808105 14.000977,-33.406738c3.615723,-8.598145 -7.475098,-23.897949 3.768066,-30.864258c11.243164,-6.966797 44.219727,-5.312012 60.911621,-7.944824c16.691406,-2.633301 36.232422,-14.06543 53.72998,-12.614746c17.497559,1.451172 32.683594,15.691895 46.911133,21.020996c14.226563,5.329102 43.162109,10.036133 50.324707,18.215332c7.162598,8.179199 -12.080566,18.671387 -14.374023,27.463379c-2.293945,8.791992 6.433105,28.788086 -4.893555,35.482422z"/>
   <path fill="#fcaf3e" stroke-width="3" stroke-linecap="round" stroke-linejoin="round" stroke-miterlimit="4" stroke-dashoffset="0" id="path7697" d="m7657.80127,4614.327148c-13.561035,7.400391 -52.443848,-3.647461 -71.165527,0.299316c-18.722168,3.946289 -57.173828,25.126953 -77.689941,22.675293c-20.51709,-2.45166 -30.865723,-21.907715 -48.109863,-28.037598c-17.244141,-6.129883 -47.832031,-5.294922 -55.852051,-14.449219c-8.019043,-9.154297 10.583984,-30.575195 15.404297,-40.106445c4.820313,-9.531738 -9.17627,-26.962402 4.226074,-34.854492c13.402344,-7.89209 54.089355,-6.29541 74.042969,-8.919434c19.953125,-2.624512 42.384766,-15.192383 63.270508,-13.566895c20.885742,1.625977 41.290527,17.406738 58.638672,23.167969c17.349121,5.76123 50.522461,12.151367 59.742188,21.224609c9.220215,9.072754 -13.829102,19.491699 -16.120605,29.375c-2.291504,9.882813 7.174805,35.791992 -6.386719,43.191895z"/>
   <path fill="#cc0000" stroke-width="3" stroke-linecap="round" stroke-linejoin="round" stroke-miterlimit="4" stroke-dashoffset="0" id="path7699" d="m7943.664551,4600.911133c-16.25293,10.447266 -56.35498,0.891113 -79.115234,4.342773c-23.512207,3.565918 -48.891602,32.539063 -72.717285,28.302734c-23.063965,-4.100098 -37.810547,-36.370117 -54.654297,-46.51123c-17.400879,-10.476074 -52.734863,-8.375488 -60.312988,-22.42627c-7.335449,-13.600586 23.995605,-35.637695 30.290527,-49.404785c6.50293,-14.222168 -10.239746,-38.166992 7.287598,-48.312012c16.967285,-9.820313 54.414063,3.82666 76.883789,0.029297c23.212891,-3.92334 47.982422,-27.509277 71.991699,-24.018555c23.239746,3.378418 38.567383,27.57959 55.602051,37.311035c17.598633,10.053223 65.001953,13.018555 73.058594,26.710449c7.798828,13.253906 -39.905273,28.774414 -44.710938,42.690918c-4.964844,14.376953 13.186035,40.492676 -3.603516,51.285645z"/>
   <path fill="#fcaf3e" stroke-width="3" stroke-linecap="round" stroke-linejoin="round" stroke-miterlimit="4" stroke-dashoffset="0" d="m7708.375,4893.010742c-15.80957,8.716797 -61.140137,-4.296387 -82.966797,0.352539c-21.826172,4.648438 -66.654297,29.59668 -90.572266,26.708984c-23.918945,-2.887695 -35.983887,-25.805176 -56.087402,-33.025391c-20.103516,-7.220215 -55.763672,-6.236328 -65.113281,-17.019043c-9.349121,-10.783203 12.338867,-36.014648 17.958008,-47.241699c5.619629,-11.227051 -10.697754,-31.758789 4.927246,-41.054688c15.624512,-9.29541 63.058594,-7.415039 86.320801,-10.506348c23.262207,-3.091309 49.413086,-17.894531 73.762207,-15.97998c24.349121,1.915039 48.137207,20.503418 68.362305,27.289551c20.225586,6.786133 58.899902,14.312988 69.648926,25c10.749023,10.687012 -16.123047,22.959473 -18.794434,34.600586c-2.671387,11.641113 8.364746,42.15918 -7.445313,50.875488z" id="path7701"/>
   <path fill="#ad7fa8" stroke-width="3" stroke-linecap="round" stroke-linejoin="round" stroke-miterlimit="4" stroke-dashoffset="0" d="m8244.294922,4800.28418c-14.969727,9.40332 -57.328125,-0.282715 -78.524902,4.453613c-21.196777,4.736328 -58.047363,27.489746 -80.938965,24.807129c-22.891113,-2.682129 -36.031738,-25.547363 -54.753418,-33.318359c-18.721191,-7.770996 -55.196777,-8.773926 -63.835449,-20.317383c-8.638672,-11.542969 13.725098,-34.850098 18.504395,-46.929199c4.779297,-12.078613 -9.878906,-33.571777 4.980957,-43.35791c14.859863,-9.786133 58.443359,-7.461914 80.505371,-11.160645c22.061035,-3.699219 47.887207,-19.758789 71.013672,-17.720703c23.126465,2.038086 43.197266,22.043945 62.001465,29.529785c18.803711,7.486328 57.046875,14.098633 66.513672,25.588379c9.466797,11.489746 -15.966797,26.229492 -18.999023,38.580078c-3.03125,12.351074 8.50293,40.440918 -6.467773,49.845215z" id="path7703"/>
   <path fill="#f57900" stroke-width="3" stroke-linecap="round" stroke-linejoin="round" stroke-miterlimit="4" stroke-dashoffset="0" id="path7705" d="m8046.649902,4929.825195c-18.323242,10.306641 -53.313477,12.183594 -79.331543,15.796875c-26.01709,3.612793 -64.110352,20.940918 -89.725098,16.708008c-25.614746,-4.23291 -48.950195,-25.083984 -67.604492,-35.016113c-18.653809,-9.932129 -52.508301,-20.024902 -60.403809,-33.623535c-7.89502,-13.599121 17.486328,-34.542969 23.680176,-47.965332c6.193848,-13.422363 -0.944824,-39.651855 18.160645,-49.329102c19.106445,-9.676758 66.200684,-3.727051 91.038086,-8.054688c24.837402,-4.327637 48.897949,-19.345703 74.725098,-15.830566c25.82666,3.514648 49.035645,24.647949 67.604004,35.015625c18.569336,10.367676 67.23291,15.473145 75.652344,28.729004c8.418945,13.255859 -17.783691,35.092285 -24.736328,48.325684c-6.952637,13.233887 -10.736328,34.937988 -29.059082,45.244141z"/>
   <path fill="#fcc916" stroke-width="3" stroke-linecap="round" stroke-linejoin="round" stroke-miterlimit="4" stroke-dashoffset="0" id="path7707" d="m7687.02832,4320.399902c-13.387695,6.999023 -51.775391,-3.450195 -70.258301,0.282715c-18.48291,3.732422 -56.444336,23.764648 -76.699219,21.446289c-20.254395,-2.318848 -30.47168,-20.720703 -47.495605,-26.518066c-17.024414,-5.797363 -47.22168,-5.007324 -55.13916,-13.665527c-7.91748,-8.657715 10.448242,-28.91748 15.20752,-37.932129c4.758789,-9.014648 -9.05957,-25.500488 4.171875,-32.964844c13.231445,-7.463867 53.399414,-5.953613 73.098145,-8.436035c19.699219,-2.481934 41.844238,-14.368164 62.463867,-12.831055c20.619141,1.538086 40.763672,16.463379 57.891113,21.912109c17.127441,5.44873 49.877441,11.492676 58.97998,20.07373c9.102051,8.581055 -13.65332,18.435059 -15.915527,27.782227c-2.262207,9.347168 7.083008,33.851563 -6.304688,40.850586z"/>
   <path fill="#ce5c00" stroke-width="3" stroke-linecap="round" stroke-linejoin="round" stroke-miterlimit="4" stroke-dashoffset="0" d="m7165.695801,4130.275879c-10.953125,5.972656 -37.980957,0.509277 -53.320313,2.482422c-15.84668,2.038574 -32.951172,18.601563 -49.009277,16.179688c-15.543457,-2.34375 -25.48291,-20.791504 -36.834961,-26.588379c-11.727539,-5.989258 -35.541504,-4.788086 -40.648438,-12.820313c-4.943848,-7.775391 16.171875,-20.373291 20.414551,-28.243408c4.383301,-8.130371 -6.901367,-21.818848 4.912109,-27.618652c11.435059,-5.61377 36.672363,2.187988 51.815918,0.01709c15.64502,-2.243164 32.338867,-15.726074 48.52002,-13.730469c15.663086,1.931152 25.993164,15.766113 37.474121,21.329102c11.860352,5.74707 43.809082,7.442383 49.239258,15.269531c5.255371,7.57666 -26.89502,16.449219 -30.134277,24.405029c-3.345703,8.219238 8.887695,23.148438 -2.428711,29.318359z" id="path7709"/>
   <path fill="#ce5c00" stroke-width="3" stroke-linecap="round" stroke-linejoin="round" stroke-miterlimit="4" stroke-dashoffset="0" id="path7711" d="m7896.430664,4735.848145c-17.166504,7.762207 -59.522949,0.662109 -83.5625,3.226563c-24.833984,2.649414 -51.640137,24.175781 -76.806152,21.02832c-24.359375,-3.046387 -39.936035,-27.022461 -57.726563,-34.557129c-18.378906,-7.783203 -55.698242,-6.222656 -63.702148,-16.662109c-7.747559,-10.105469 25.34375,-26.478516 31.993164,-36.707031c6.868652,-10.566895 -10.81543,-28.357422 7.697266,-35.89502c17.92041,-7.296387 57.47168,2.843262 81.205078,0.021484c24.51709,-2.915039 50.680176,-20.438477 76.039063,-17.845215c24.546387,2.510254 40.734375,20.491211 58.727051,27.72168c18.588379,7.469238 68.65625,9.672363 77.166016,19.845215c8.237305,9.847656 -42.148438,21.378906 -47.225098,31.71875c-5.243164,10.681641 13.928223,30.085449 -3.805176,38.104492z"/>
   <path fill="#f57900" stroke-width="3" stroke-linecap="round" stroke-linejoin="round" stroke-miterlimit="4" stroke-dashoffset="0" d="m7497.839844,4721.729004c-13.146484,8.696289 -45.583984,0.741699 -63.994629,3.614746c-19.018066,2.968262 -39.546875,27.084961 -58.819824,23.559082c-18.654785,-3.413086 -30.583984,-30.274414 -44.208496,-38.715332c-14.074707,-8.720215 -42.655273,-6.972168 -48.784668,-18.66748c-5.933594,-11.321289 19.408691,-29.664551 24.500977,-41.124023c5.260254,-11.838867 -8.282715,-31.77002 5.89502,-40.214844c13.723633,-8.174316 44.013672,3.185547 62.188965,0.024414c18.775879,-3.265625 38.812012,-22.898438 58.232422,-19.992676c18.79834,2.8125 31.195801,22.957031 44.974609,31.057129c14.23584,8.368164 52.579102,10.836426 59.096191,22.233887c6.308105,11.032227 -32.27832,23.951172 -36.166016,35.535156c-4.015625,11.967285 10.666016,33.706055 -2.914551,42.689941z" id="path7713"/>
   <path fill="#ad7fa8" stroke-width="3" stroke-linecap="round" stroke-linejoin="round" stroke-miterlimit="4" stroke-dashoffset="0" id="path7715" d="m7758.210449,4472.120117c-13.744629,8.410156 -52.633301,-0.252441 -72.094238,3.983398c-19.460938,4.23584 -53.294434,24.584961 -74.310547,22.186035c-21.01709,-2.398926 -33.082031,-22.848145 -50.27002,-29.79834c-17.188477,-6.949707 -50.676758,-7.84668 -58.608398,-18.17041c-7.931152,-10.323242 12.601563,-31.167969 16.989258,-41.970703c4.387695,-10.802734 -9.069824,-30.024902 4.573242,-38.776855c13.64209,-8.752441 53.657715,-6.67334 73.912109,-9.981934c20.254395,-3.308105 43.966309,-17.670898 65.19873,-15.848145c21.23291,1.822754 39.660156,19.714844 56.923828,26.410156c17.263672,6.694824 52.375,12.608398 61.066406,22.884277c8.691895,10.275879 -14.659668,23.458496 -17.442383,34.504395c-2.782715,11.04541 7.806641,36.167969 -5.937988,44.578125z"/>
   <path fill="#f57900" stroke-width="3" stroke-linecap="round" stroke-linejoin="round" stroke-miterlimit="4" stroke-dashoffset="0" d="m7279.55127,4220.90332c-10.758789,5.882813 -31.302734,6.954102 -46.579102,9.016113c-15.276367,2.062012 -37.642578,11.952148 -52.682617,9.536133c-15.039063,-2.416016 -28.740234,-14.316895 -39.693359,-19.985352c-10.952637,-5.668945 -30.830078,-11.429199 -35.46582,-19.190918c-4.63623,-7.76123 10.266602,-19.715332 13.903809,-27.375977c3.636719,-7.660645 -0.554688,-22.631348 10.663086,-28.154785c11.218262,-5.522949 38.869629,-2.126953 53.452637,-4.597168c14.583008,-2.470215 28.710449,-11.041504 43.874512,-9.035156c15.164063,2.005859 28.791016,14.067871 39.693359,19.985352c10.902344,5.916992 39.475586,8.831055 44.418945,16.396973c4.943359,7.565918 -10.441895,20.028809 -14.523926,27.581543c-4.082031,7.553223 -6.303223,19.940918 -17.061523,25.823242z" id="path7717"/>
   <path fill="#fcaf3e" stroke-width="3" stroke-linecap="round" stroke-linejoin="round" stroke-miterlimit="4" stroke-dashoffset="0" d="m7248.10791,4444.64209c-9.891602,6.602539 -38.253418,-3.254395 -51.90918,0.266602c-13.65625,3.520996 -41.703613,22.417969 -56.668457,20.230957c-14.964844,-2.1875 -22.513672,-19.545898 -35.091797,-25.015137c-12.578125,-5.46875 -34.88916,-4.723633 -40.739258,-12.891113c-5.849121,-8.166992 7.720215,-27.27832 11.236328,-35.782227c3.515625,-8.503906 -6.693359,-24.055664 3.08252,-31.09668c9.775391,-7.041016 39.453613,-5.616699 54.007813,-7.958008c14.554199,-2.341309 30.916016,-13.554199 46.150391,-12.103516c15.234375,1.450195 30.118164,15.529785 42.771973,20.669922c12.654785,5.140137 36.851563,10.841309 43.577148,18.936035c6.725098,8.094727 -10.087402,17.390137 -11.758789,26.208008c-1.671875,8.817383 5.233398,31.932617 -4.658691,38.535156z" id="path7719"/>
  </g>
  <path opacity="0.698" fill="#1e9e00" stroke-width="3" stroke-linecap="round" stroke-linejoin="round" stroke-miterlimit="4" stroke-dashoffset="0" id="path7788" d="m2236.052979,1017.580322c1.470703,0.307617 1.838623,1.013672 3.073486,2.06958c1.607178,1.812012 4.861572,7.238892 4.495605,8.126221c-0.485596,1.598511 -4.574463,-7.459351 -7.569092,-10.195801zm27.610596,3.951416c-3.490479,6.530518 -3.819092,7.019775 -6.54126,6.925049c0.577881,-1.2052 2.237793,-2.186523 3.402588,-3.331421c1.241211,-1.220703 1.916016,-3.503296 3.138672,-3.593628zm-12.269287,0.238159c3.9729,4.266846 4.397217,5.803589 3.728027,6.284058c-1.223633,0.463745 -0.956299,-0.746826 -3.728027,-6.284058zm-7.432129,0.914917c0.977783,-0.163574 1.69043,1.314209 2.079102,2.522949c0.992676,3.086548 1.003906,2.640991 0.334717,2.902588c-0.922607,0.360596 -0.916504,-2.788574 -2.413818,-5.425537zm-6.578613,-0.283447c1.023682,0.030273 1.556152,1.280518 2.273926,2.43457c0.720947,2.200439 2.819336,3.567505 1.3396,3.651123c-1.47168,0.08313 -2.489746,-3.473633 -3.613525,-6.085693zm10.97168,0.84668c3.228271,3.53833 3.918701,4.623657 2.622314,4.769775c-0.836182,0.094116 -0.9021,-0.770386 -1.856445,-2.224243c-0.61499,-0.936401 -1.381348,-1.756958 -0.765869,-2.545532z"/>
 </g>
</svg>