<svg width="506" height="506" xmlns="http://www.w3.org/2000/svg">
 <g>
  <title>Layer 1</title>
  <g id="svg_1">
   <rect id="svg_2" height="505" width="8.5" stroke-miterlimit="10" stroke="#000000" fill="#ff7f00" y="1" x="249"/>
   <rect id="svg_3" height="505.008" width="8.501" stroke-miterlimit="10" stroke="#000000" fill="#ff7f00" transform="matrix(0.4998 -0.8661 0.8661 0.4998 -65.3149 453.843)" y="-76.707315" x="328.534453"/>
   <rect id="svg_4" height="505.019" width="8.5" stroke-miterlimit="10" stroke="#000000" fill="#ff7f00" transform="matrix(0.8656 -0.5007 0.5007 0.8656 -93.5235 218.451)" y="-48.577777" x="278.401994"/>
   <rect id="svg_5" height="8.5" width="505" stroke-miterlimit="10" stroke="#000000" fill="#ff7f00" y="249.25" x="0.75"/>
   <rect id="svg_6" height="504.976" width="8.5" stroke-miterlimit="10" stroke="#000000" fill="#ff7f00" transform="matrix(0.8642 0.5031 -0.5031 0.8642 191.547 -142.753)" y="58.919064" x="248.432359"/>
   <rect id="svg_7" height="504.98" width="8.5" stroke-miterlimit="10" stroke="#000000" fill="#ff7f00" transform="matrix(0.5004 0.8658 -0.8658 0.5004 425.408 -170.266)" y="108.612838" x="276.470982"/>
  </g>
  <g id="svg_8">
   <path id="svg_9" d="m256.5,133.332993c-64.341003,0 -116.5,52.158997 -116.5,116.500015s52.158997,116.5 116.5,116.5s116.5,-52.158997 116.5,-116.5s-52.158997,-116.500015 -116.5,-116.500015zm0.166992,225.334c-60.015991,0 -108.666992,-48.651978 -108.666992,-108.666992s48.651001,-108.667007 108.666992,-108.667007c60.015015,0 108.667023,48.652008 108.667023,108.667007s-48.652008,108.666992 -108.667023,108.666992z" stroke-miterlimit="10" stroke="#000000" fill="#ff7f00"/>
   <path id="svg_10" d="m256.5,88.667c-89.009003,0 -161.166,72.15699 -161.166,161.166008c0,89.009979 72.156998,161.166992 161.166,161.166992s161.166016,-72.157013 161.166016,-161.166992c0,-89.009003 -72.157013,-161.166008 -161.166016,-161.166008zm0.230988,311.727013c-83.026001,0 -150.332993,-67.304993 -150.332993,-150.329987c0,-83.024017 67.305008,-150.330017 150.332993,-150.330017c83.022003,0 150.326996,67.304993 150.326996,150.330017c0.002991,83.024963 -67.301971,150.329987 -150.326996,150.329987z" stroke-miterlimit="10" stroke="#000000" fill="#ff7f00"/>
   <path id="svg_11" d="m256.5,38c-116.990997,0 -211.832993,94.841003 -211.832993,211.833008s94.840988,211.833984 211.832993,211.833984s211.832031,-94.84201 211.832031,-211.833984s-94.841034,-211.833008 -211.832031,-211.833008zm0.303986,409.726013c-109.126999,0 -197.591003,-88.462006 -197.591003,-197.587006c0,-109.125 88.463989,-197.589005 197.591003,-197.589005c109.126007,0 197.58902,88.464005 197.58902,197.589005c0,109.125 -88.463013,197.587006 -197.58902,197.587006z" stroke-miterlimit="10" stroke="#000000" fill="#ff7f00"/>
  </g>
 </g>
</svg>